<svg data-v-423bf9ae="" xmlns="http://www.w3.org/2000/svg" viewBox="0 0 331.23111738502354 197" class="iconAboveSlogan"><!----><!----><!----><g data-v-423bf9ae="" id="c463d26c-64d5-480d-9ee6-cdcdb6395975" fill="black" transform="matrix(4.31965446472168,0,0,4.31965446472168,-3.6716976165771484,89.99784088134766)"><path d="M0.85 13.51L0.85 6.65L1.89 6.65L2.04 7.78L2.04 7.78Q2.58 7.13 3.06 6.82L3.06 6.82L3.06 6.82Q3.54 6.51 4.07 6.51L4.07 6.51L4.07 6.51Q4.24 6.51 4.40 6.55L4.40 6.55L4.27 7.94L4.27 7.94Q4.09 7.90 3.85 7.90L3.85 7.90L3.85 7.90Q3.33 7.90 2.87 8.13L2.87 8.13L2.87 8.13Q2.41 8.36 2.20 8.67L2.20 8.67L2.20 13.51L0.85 13.51ZM8.57 13.65L8.57 13.65Q7.39 13.65 6.56 13.17L6.56 13.17L6.56 13.17Q5.73 12.68 5.29 11.86L5.29 11.86L5.29 11.86Q4.86 11.03 4.86 10.02L4.86 10.02L4.86 10.02Q4.86 9.06 5.26 8.25L5.26 8.25L5.26 8.25Q5.66 7.45 6.42 6.98L6.42 6.98L6.42 6.98Q7.18 6.51 8.22 6.51L8.22 6.51L8.22 6.51Q9.53 6.51 10.35 7.28L10.35 7.28L10.35 7.28Q11.17 8.05 11.17 9.41L11.17 9.41L11.17 9.41Q11.17 9.76 11.12 10.08L11.12 10.08L6.15 10.08L6.15 10.08Q6.27 11.41 6.96 11.97L6.96 11.97L6.96 11.97Q7.64 12.53 8.72 12.53L8.72 12.53L8.72 12.53Q9.80 12.53 10.70 12.12L10.70 12.12L10.86 13.12L10.86 13.12Q9.67 13.65 8.57 13.65L8.57 13.65ZM6.26 9.21L9.87 9.21L9.87 9.21Q9.87 8.47 9.45 8.05L9.45 8.05L9.45 8.05Q9.03 7.63 8.19 7.63L8.19 7.63L8.19 7.63Q7.38 7.63 6.92 8.03L6.92 8.03L6.92 8.03Q6.45 8.43 6.26 9.21L6.26 9.21ZM15.51 13.71L15.51 13.71Q14.64 13.71 13.75 13.52L13.75 13.52L13.75 13.52Q12.85 13.33 12.31 13.08L12.31 13.08L12.49 11.66L12.49 11.66Q13.19 12.00 14.07 12.25L14.07 12.25L14.07 12.25Q14.95 12.50 15.82 12.50L15.82 12.50L15.82 12.50Q16.80 12.50 17.34 12.14L17.34 12.14L17.34 12.14Q17.88 11.79 17.88 11.07L17.88 11.07L17.88 11.07Q17.88 10.54 17.61 10.18L17.61 10.18L17.61 10.18Q17.33 9.83 16.81 9.58L16.81 9.58L16.81 9.58Q16.28 9.34 15.34 9.06L15.34 9.06L15.34 9.06Q14.39 8.78 13.76 8.46L13.76 8.46L13.76 8.46Q13.13 8.13 12.75 7.57L12.75 7.57L12.75 7.57Q12.36 7.01 12.36 6.16L12.36 6.16L12.36 6.16Q12.36 4.97 13.28 4.24L13.28 4.24L13.28 4.24Q14.20 3.51 15.86 3.51L15.86 3.51L15.86 3.51Q16.76 3.51 17.56 3.71L17.56 3.71L17.56 3.71Q18.37 3.91 18.97 4.19L18.97 4.19L18.83 5.60L18.83 5.60Q18.05 5.14 17.32 4.93L17.32 4.93L17.32 4.93Q16.59 4.72 15.81 4.72L15.81 4.72L15.81 4.72Q14.90 4.72 14.36 5.05L14.36 5.05L14.36 5.05Q13.82 5.39 13.82 6.09L13.82 6.09L13.82 6.09Q13.82 6.57 14.06 6.87L14.06 6.87L14.06 6.87Q14.31 7.18 14.77 7.40L14.77 7.40L14.77 7.40Q15.23 7.62 16.06 7.87L16.06 7.87L16.06 7.87Q17.71 8.37 18.52 9.06L18.52 9.06L18.52 9.06Q19.33 9.76 19.33 10.98L19.33 10.98L19.33 10.98Q19.33 12.26 18.37 12.98L18.37 12.98L18.37 12.98Q17.40 13.71 15.51 13.71L15.51 13.71ZM23.91 13.65L23.91 13.65Q22.74 13.65 21.90 13.17L21.90 13.17L21.90 13.17Q21.07 12.68 20.64 11.86L20.64 11.86L20.64 11.86Q20.20 11.03 20.20 10.02L20.20 10.02L20.20 10.02Q20.20 9.06 20.60 8.25L20.60 8.25L20.60 8.25Q21 7.45 21.76 6.98L21.76 6.98L21.76 6.98Q22.53 6.51 23.56 6.51L23.56 6.51L23.56 6.51Q24.88 6.51 25.70 7.28L25.70 7.28L25.70 7.28Q26.52 8.05 26.52 9.41L26.52 9.41L26.52 9.41Q26.52 9.76 26.46 10.08L26.46 10.08L21.49 10.08L21.49 10.08Q21.62 11.41 22.30 11.97L22.30 11.97L22.30 11.97Q22.99 12.53 24.07 12.53L24.07 12.53L24.07 12.53Q25.14 12.53 26.04 12.12L26.04 12.12L26.21 13.12L26.21 13.12Q25.02 13.65 23.91 13.65L23.91 13.65ZM21.60 9.21L25.21 9.21L25.21 9.21Q25.21 8.47 24.79 8.05L24.79 8.05L24.79 8.05Q24.37 7.63 23.53 7.63L23.53 7.63L23.53 7.63Q22.72 7.63 22.26 8.03L22.26 8.03L22.26 8.03Q21.80 8.43 21.60 9.21L21.60 9.21ZM29.39 13.65L29.39 13.65Q28.43 13.65 27.85 13.09L27.85 13.09L27.85 13.09Q27.27 12.53 27.27 11.66L27.27 11.66L27.27 11.66Q27.27 10.36 28.50 9.80L28.50 9.80L28.50 9.80Q29.74 9.24 31.37 9.21L31.37 9.21L31.37 9.21Q31.37 8.29 31.02 7.96L31.02 7.96L31.02 7.96Q30.66 7.63 29.88 7.63L29.88 7.63L29.88 7.63Q29.44 7.63 29.01 7.76L29.01 7.76L29.01 7.76Q28.57 7.90 28.07 8.25L28.07 8.25L27.89 7.22L27.89 7.22Q28.31 6.90 28.92 6.71L28.92 6.71L28.92 6.71Q29.54 6.51 30.21 6.51L30.21 6.51L30.21 6.51Q31.09 6.51 31.62 6.82L31.62 6.82L31.62 6.82Q32.14 7.13 32.39 7.84L32.39 7.84L32.39 7.84Q32.63 8.55 32.63 9.80L32.63 9.80L32.63 11.20L32.63 11.20Q32.63 11.76 32.68 12.05L32.68 12.05L32.68 12.05Q32.73 12.33 32.90 12.49L32.90 12.49L32.90 12.49Q33.07 12.64 33.42 12.64L33.42 12.64L33.54 12.64L33.35 13.65L33.25 13.65L33.25 13.65Q32.66 13.65 32.33 13.54L32.33 13.54L32.33 13.54Q31.99 13.43 31.82 13.22L31.82 13.22L31.82 13.22Q31.64 13.01 31.49 12.64L31.49 12.64L31.49 12.64Q30.62 13.65 29.39 13.65L29.39 13.65ZM29.62 12.64L29.62 12.64Q30.13 12.64 30.60 12.39L30.60 12.39L30.60 12.39Q31.07 12.14 31.37 11.72L31.37 11.72L31.37 10.08L31.37 10.08Q29.86 10.14 29.21 10.48L29.21 10.48L29.21 10.48Q28.56 10.82 28.56 11.59L28.56 11.59L28.56 11.59Q28.56 12.12 28.85 12.38L28.85 12.38L28.85 12.38Q29.13 12.64 29.62 12.64L29.62 12.64ZM34.51 13.51L34.51 6.65L35.55 6.65L35.70 7.78L35.70 7.78Q36.23 7.13 36.71 6.82L36.71 6.82L36.71 6.82Q37.20 6.51 37.73 6.51L37.73 6.51L37.73 6.51Q37.90 6.51 38.05 6.55L38.05 6.55L37.93 7.94L37.93 7.94Q37.74 7.90 37.51 7.90L37.51 7.90L37.51 7.90Q36.99 7.90 36.53 8.13L36.53 8.13L36.53 8.13Q36.06 8.36 35.85 8.67L35.85 8.67L35.85 13.51L34.51 13.51ZM42.08 13.65L42.08 13.65Q40.96 13.65 40.16 13.19L40.16 13.19L40.16 13.19Q39.35 12.73 38.95 11.92L38.95 11.92L38.95 11.92Q38.54 11.12 38.54 10.12L38.54 10.12L38.54 10.12Q38.54 8.50 39.46 7.50L39.46 7.50L39.46 7.50Q40.38 6.51 42.18 6.51L42.18 6.51L42.18 6.51Q43.25 6.51 44.06 6.92L44.06 6.92L43.86 8.02L43.86 8.02Q43.01 7.63 42.15 7.63L42.15 7.63L42.15 7.63Q41.03 7.63 40.43 8.27L40.43 8.27L40.43 8.27Q39.83 8.90 39.83 10.07L39.83 10.07L39.83 10.07Q39.83 11.23 40.41 11.89L40.41 11.89L40.41 11.89Q40.99 12.54 42.13 12.54L42.13 12.54L42.13 12.54Q43.04 12.54 43.88 12.12L43.88 12.12L44.04 13.13L44.04 13.13Q43.74 13.34 43.20 13.50L43.20 13.50L43.20 13.50Q42.66 13.65 42.08 13.65L42.08 13.65ZM48.57 6.51L48.57 6.51Q49.87 6.51 50.55 7.36L50.55 7.36L50.55 7.36Q51.24 8.22 51.24 9.69L51.24 9.69L51.24 13.51L49.98 13.51L49.98 9.84L49.98 9.84Q49.98 8.71 49.57 8.17L49.57 8.17L49.57 8.17Q49.15 7.63 48.29 7.63L48.29 7.63L48.29 7.63Q47.75 7.63 47.31 7.88L47.31 7.88L47.31 7.88Q46.86 8.12 46.55 8.57L46.55 8.57L46.55 13.51L45.28 13.51L45.28 3.01L46.55 3.01L46.55 7.31L46.55 7.31Q46.96 6.92 47.44 6.71L47.44 6.71L47.44 6.71Q47.92 6.51 48.57 6.51L48.57 6.51ZM56.17 13.65L56.17 13.65Q54.99 13.65 54.16 13.17L54.16 13.17L54.16 13.17Q53.33 12.68 52.89 11.86L52.89 11.86L52.89 11.86Q52.46 11.03 52.46 10.02L52.46 10.02L52.46 10.02Q52.46 9.06 52.86 8.25L52.86 8.25L52.86 8.25Q53.26 7.45 54.02 6.98L54.02 6.98L54.02 6.98Q54.78 6.51 55.82 6.51L55.82 6.51L55.82 6.51Q57.13 6.51 57.95 7.28L57.95 7.28L57.95 7.28Q58.77 8.05 58.77 9.41L58.77 9.41L58.77 9.41Q58.77 9.76 58.72 10.08L58.72 10.08L53.75 10.08L53.75 10.08Q53.87 11.41 54.56 11.97L54.56 11.97L54.56 11.97Q55.24 12.53 56.32 12.53L56.32 12.53L56.32 12.53Q57.40 12.53 58.30 12.12L58.30 12.12L58.46 13.12L58.46 13.12Q57.27 13.65 56.17 13.65L56.17 13.65ZM53.86 9.21L57.47 9.21L57.47 9.21Q57.47 8.47 57.05 8.05L57.05 8.05L57.05 8.05Q56.63 7.63 55.79 7.63L55.79 7.63L55.79 7.63Q54.98 7.63 54.52 8.03L54.52 8.03L54.52 8.03Q54.05 8.43 53.86 9.21L53.86 9.21ZM60.05 13.51L60.05 6.65L61.08 6.65L61.24 7.78L61.24 7.78Q61.77 7.13 62.25 6.82L62.25 6.82L62.25 6.82Q62.73 6.51 63.27 6.51L63.27 6.51L63.27 6.51Q63.43 6.51 63.59 6.55L63.59 6.55L63.46 7.94L63.46 7.94Q63.28 7.90 63.04 7.90L63.04 7.90L63.04 7.90Q62.52 7.90 62.06 8.13L62.06 8.13L62.06 8.13Q61.60 8.36 61.39 8.67L61.39 8.67L61.39 13.51L60.05 13.51ZM64.32 13.51L64.32 12.03L65.83 12.03L65.83 13.51L64.32 13.51ZM70.87 6.51L70.87 6.51Q71.78 6.51 72.46 6.98L72.46 6.98L72.46 6.98Q73.14 7.45 73.50 8.26L73.50 8.26L73.50 8.26Q73.86 9.07 73.86 10.08L73.86 10.08L73.86 10.08Q73.86 11.10 73.52 11.91L73.52 11.91L73.52 11.91Q73.18 12.71 72.51 13.18L72.51 13.18L72.51 13.18Q71.83 13.65 70.87 13.65L70.87 13.65L70.87 13.65Q70.15 13.65 69.57 13.40L69.57 13.40L69.57 13.40Q68.98 13.15 68.64 12.67L68.64 12.67L68.64 16.90L67.38 16.90L67.38 6.65L68.36 6.65L68.50 7.60L68.50 7.60Q69.37 6.51 70.87 6.51L70.87 6.51ZM70.63 12.53L70.63 12.53Q71.54 12.53 72.06 11.88L72.06 11.88L72.06 11.88Q72.58 11.23 72.58 10.08L72.58 10.08L72.58 10.08Q72.58 8.93 72.06 8.28L72.06 8.28L72.06 8.28Q71.54 7.63 70.63 7.63L70.63 7.63L70.63 7.63Q69.73 7.63 69.15 8.26L69.15 8.26L69.15 8.26Q68.57 8.89 68.57 10.08L68.57 10.08L68.57 10.08Q68.57 11.31 69.15 11.92L69.15 11.92L69.15 11.92Q69.72 12.53 70.63 12.53L70.63 12.53ZM76.94 13.65L76.94 13.65Q76.02 13.65 75.59 13.17L75.59 13.17L75.59 13.17Q75.17 12.70 75.17 12.00L75.17 12.00L75.17 3.01L76.43 3.01L76.43 11.27L76.43 11.27Q76.43 11.89 76.50 12.17L76.50 12.17L76.50 12.17Q76.58 12.45 76.80 12.54L76.80 12.54L76.80 12.54Q77.03 12.64 77.53 12.64L77.53 12.64L77.35 13.65L76.94 13.65Z"></path></g><!----><g data-v-423bf9ae="" id="19349e2a-4fa3-4462-95f5-c314bf02024d" transform="matrix(1.0998480319976807,0,0,1.0998480319976807,111.29822540283203,-9.971370697021484)" stroke="none" fill="black"><path d="M80.786 49.336c-.128-.058-.271-.094-.41-.136.111-2.757.148-5.596.1-7.91-.24-11.487-4.782-20.534-13.137-26.165-8.482-5.716-19.373-6.977-29.134-3.372-15.958 5.892-19.097 19.242-18.718 37.49-.09.03-.187.054-.273.093-3.243 1.477-1.58 5.172-.78 6.948l.112.25c.957 2.146 1.64 4.336 2.364 6.654l.187.596c.46 1.472 1.591 3.333 3.381 4.145a4.213 4.213 0 0 0 1.751.386c.226 0 .452-.036.677-.073 2.84 10.921 11.486 21.085 19.677 22.93 1.146.257 2.29.386 3.427.386 3.084 0 6.133-.946 9.098-2.829 7.165-4.549 12.125-13.597 13.924-20.519.228.037.455.074.682.074.609 0 1.214-.133 1.799-.398 1.81-.822 2.938-2.658 3.39-4.102l.187-.596c.723-2.318 1.407-4.508 2.365-6.654l.111-.25c.8-1.776 2.463-5.471-.78-6.948zM25.304 66.107c-.98-.444-1.882-1.59-2.3-2.92l-.185-.595c-.709-2.271-1.442-4.62-2.446-6.873l-.116-.256c-1.067-2.37-1.417-3.76-.214-4.307a1.45 1.45 0 0 1 .402-.105c.027.002.055.002.083.002.04-.001.078-.01.116-.015.158-.011.327.007.495.024.096.01.188.007.287.024.173.03.348.084.523.135.095.028.19.046.285.079.17.06.33.134.492.205.094.042.193.077.284.122.244.122.474.253.677.387.256.17.495.364.72.569.073.066.137.14.206.209.11.11.211.226.31.343.027.793.061 1.585.105 2.376-.492-.365-.992-.72-1.36-.937a1 1 0 1 0-1.018 1.722c.632.374 1.884 1.341 2.577 1.892l.022.228c.03.305.07.608.103.912.07.646.14 1.29.227 1.93.05.37.11.733.165 1.1.086.57.172 1.14.27 1.702.069.389.145.768.219 1.152.07.364.132.735.207 1.094a2.179 2.179 0 0 1-1.136-.199zm32.732 20.934c-3.595 2.281-7.3 3.014-11.013 2.18-7.633-1.72-16.073-11.992-18.43-22.432-.81-3.587-1.352-7.508-1.566-11.337-.043-.777-.073-1.554-.099-2.332.031-.099.05-.201.05-.305 0-.12-.026-.24-.07-.356-.024-.85-.026-1.725-.03-2.596-.003-.491-.019-.969-.015-1.466.009-1.416.041-2.854.099-4.305.026-.646.04-1.313.057-1.991.063-2.798.129-5.691.935-8.107 1.621-4.86 7.367-5.03 12.436-5.18.636-.018 1.252-.036 1.835-.064 9.169-.438 16.188-.24 22.752.642 3.011.404 6.707 1.734 7.208 5.779.755 6.101 1.04 12.023.847 17.601-.173 4.963-.745 9.669-1.7 13.987-1.47 6.636-6.257 15.813-13.296 20.282zm21.707-31.578l-.115.256c-1.005 2.253-1.738 4.602-2.447 6.873l-.186.595c-.406 1.295-1.312 2.425-2.309 2.877a2.257 2.257 0 0 1-1.206.209c.1-.48.179-.978.27-1.467.08-.442.168-.879.242-1.328.12-.729.222-1.474.323-2.22.052-.39.114-.77.161-1.165.062-.515.107-1.042.159-1.565.692-.55 1.946-1.518 2.58-1.892a1 1 0 0 0-1.017-1.723c-.361.213-.85.558-1.332.915.06-.871.117-1.744.151-2.632.102-.124.209-.245.324-.363.072-.073.136-.15.213-.22.234-.214.486-.418.76-.599.789-.522 2.012-1.03 2.985-.991.271.011.486.055.658.133 1.203.548.853 1.936-.214 4.307z"></path><path d="M31.668 41.744c4.551-4.155 8.683-3.497 13.873-1.091a1 1 0 1 0 .84-1.814c-5.771-2.676-10.711-3.457-16.061 1.427a1 1 0 0 0 1.348 1.478zM54.528 45.413a1 1 0 1 0 .802 1.832c5.397-2.361 9.401-2.891 13.898 1.395a.996.996 0 0 0 1.413-.034 1 1 0 0 0-.034-1.413c-5.26-5.015-10.232-4.338-16.08-1.78z"></path><circle cx="61.496" cy="50.851" r="1.689"></circle><path d="M51.346 66.29a1 1 0 0 0 .929.105l5.53-2.169a1 1 0 0 0-.731-1.862l-4.164 1.634v-12.19a1 1 0 0 0-2 0v13.656a1 1 0 0 0 .436.826zM60.342 72.125c-5.995 2.42-12.419 2.416-18.084-.013a1 1 0 1 0-.788 1.838 24.618 24.618 0 0 0 9.724 1.988c3.311 0 6.663-.652 9.897-1.958a1 1 0 0 0-.749-1.855zM47.146 54.98a8.822 8.822 0 0 0 .533-6.775c-1.513-4.655-6.53-7.209-11.188-5.7a8.82 8.82 0 0 0-5.167 4.414 8.822 8.822 0 0 0-.532 6.775 8.806 8.806 0 0 0 3.552 4.66l-3.03 5.954a1 1 0 1 0 1.783.907l3.029-5.951a8.793 8.793 0 0 0 5.853.13 8.82 8.82 0 0 0 5.167-4.415zm-10.103 2.482a6.953 6.953 0 0 1-.928-.382l-.002-.001a6.95 6.95 0 0 1-.853-.524 6.822 6.822 0 0 1-2.566-3.48c-.569-1.747-.422-3.61.412-5.248s2.255-2.85 4.003-3.419a6.845 6.845 0 0 1 2.121-.337c2.9 0 5.603 1.85 6.546 4.752a6.886 6.886 0 0 1-4.415 8.668 6.82 6.82 0 0 1-4.318-.03z"></path><path d="M39.305 49.162c-.933 0-1.688.756-1.688 1.689 0 .264.065.51.173.733.158.326.417.59.737.757.234.123.496.198.778.198.088 0 .172-.013.256-.025a1.684 1.684 0 0 0-.256-3.352z"></path></g><!----><g data-v-423bf9ae="" id="135044d1-9be4-4e23-93b3-6a78e2b041f2" fill="black" transform="matrix(2.126002073287964,0,0,2.126002073287964,41.428001403808594,192.44232177734375)"><path d="M9.21 2.42L0.32 2.42L0.32 4.33L3.74 4.33L3.74 12.67L5.79 12.67L5.79 4.33L9.21 4.33L9.21 2.42ZM15.34 12.67L15.34 12.67Q13.15 12.67 11.68 11.20L11.68 11.20L11.68 11.20Q10.21 9.73 10.21 7.55L10.21 7.55L10.21 7.55Q10.21 5.36 11.68 3.89L11.68 3.89L11.68 3.89Q13.15 2.42 15.34 2.42L15.34 2.42L15.34 2.42Q17.53 2.42 19.00 3.89L19.00 3.89L19.00 3.89Q20.47 5.36 20.47 7.55L20.47 7.55L20.47 7.55Q20.47 9.73 19.00 11.20L19.00 11.20L19.00 11.20Q17.53 12.67 15.34 12.67L15.34 12.67ZM15.35 10.76L15.35 10.76L15.35 10.76Q16.71 10.76 17.56 9.84L17.56 9.84L17.56 9.84Q18.42 8.91 18.42 7.55L18.42 7.55L18.42 7.55Q18.42 6.18 17.56 5.26L17.56 5.26L17.56 5.26Q16.71 4.33 15.33 4.33L15.33 4.33L15.33 4.33Q13.97 4.33 13.12 5.26L13.12 5.26L13.12 5.26Q12.26 6.18 12.26 7.55L12.26 7.55L12.26 7.55Q12.26 8.91 13.12 9.84L13.12 9.84L13.12 9.84Q13.97 10.76 15.35 10.76ZM24.04 12.67L21.99 12.67L21.99 2.42L22.67 2.42L27.12 7.48L31.57 2.42L32.25 2.42L32.25 12.67L30.20 12.67L30.19 6.73L27.12 10.14L24.04 6.73L24.04 12.67ZM42.42 2.42L42.42 2.42Q43.85 2.42 44.63 2.76L44.63 2.76L44.63 2.76Q45.42 3.10 46.10 3.79L46.10 3.79L44.73 5.15L44.73 5.15Q44.05 4.33 42.82 4.33L42.82 4.33L42.82 4.33Q41.59 4.33 41.25 4.92L41.25 4.92L41.25 4.92Q40.91 5.50 41.25 5.91L41.25 5.91L41.25 5.91Q41.59 6.32 42.82 6.52L42.82 6.52L42.82 6.52Q44.12 6.66 45.18 7.38L45.18 7.38L45.18 7.38Q46.24 8.09 46.24 9.67L46.24 9.67L46.24 9.67Q46.24 10.90 45.11 11.79L45.11 11.79L45.11 11.79Q43.98 12.67 42.47 12.67L42.47 12.67L42.47 12.67Q41.04 12.67 40.09 12.26L40.09 12.26L40.09 12.26Q39.13 11.85 38.45 11.17L38.45 11.17L39.81 9.80L39.81 9.80Q40.50 10.62 42.14 10.76L42.14 10.76L42.14 10.76Q43.50 10.76 43.84 10.18L43.84 10.18L43.84 10.18Q44.18 9.60 43.84 9.02L43.84 9.02L43.84 9.02Q43.50 8.44 42.14 8.30L42.14 8.30L42.14 8.30Q40.91 8.16 39.88 7.55L39.88 7.55L39.88 7.55Q38.86 6.93 38.86 5.43L38.86 5.43L38.86 5.43Q38.86 4.07 40.02 3.24L40.02 3.24L40.02 3.24Q41.19 2.42 42.42 2.42L42.42 2.42ZM49.72 12.67L47.53 12.67L51.63 2.42L53.68 2.42L57.78 12.67L55.60 12.67L54.98 11.10L50.33 11.10L49.72 12.67ZM54.23 9.05L52.71 5.15L51.15 9.05L54.23 9.05ZM61.36 12.67L59.31 12.67L59.31 2.42L63.78 2.42L63.78 2.42Q67.37 2.42 67.37 5.37L67.37 5.37L67.37 5.37Q67.37 8.44 63.79 8.44L63.79 8.44L61.36 8.44L61.36 12.67ZM61.36 4.34L61.36 6.52L64.23 6.52L64.23 6.52Q65.47 6.50 65.50 5.39L65.50 5.39L65.50 5.39Q65.47 4.38 64.25 4.34L64.25 4.34L61.36 4.34ZM70.95 2.42L68.90 2.42L68.90 12.67L76.42 12.67L76.42 10.76L70.95 10.76L70.95 2.42ZM85.60 12.67L78.08 12.67L78.08 2.43L85.61 2.42L85.61 4.33L80.13 4.33L80.13 6.52L84.24 6.52L84.24 8.43L80.13 8.43L80.13 10.76L85.60 10.76L85.60 12.67ZM96.04 2.42L87.16 2.42L87.16 4.33L90.58 4.33L90.58 12.67L92.63 12.67L92.63 4.33L96.04 4.33L96.04 2.42ZM105.94 2.42L97.05 2.42L97.05 4.33L100.47 4.33L100.47 12.67L102.52 12.67L102.52 4.33L105.94 4.33L105.94 2.42ZM109.11 12.67L106.92 12.67L111.02 2.42L113.07 2.42L117.17 12.67L114.99 12.67L114.37 11.10L109.72 11.10L109.11 12.67ZM113.62 9.05L112.10 5.15L110.54 9.05L113.62 9.05Z"></path></g></svg>