<svg data-v-423bf9ae="" xmlns="http://www.w3.org/2000/svg" viewBox="0 0 453.8068133892269 60" class="font"><!----><!----><!----><g data-v-423bf9ae="" id="b7c3b2be-e5f5-4941-87ec-d58d9bf2c0ef" fill="white" transform="matrix(5.68181848526001,0,0,5.68181848526001,-4.318183422088623,-18.29545783996582)"><path d="M5.28 5.91C4.80 5.91 4.21 6.12 3.81 6.57L3.28 7.62L3.28 6.10L0.76 6.10L0.76 13.58L3.28 13.58L3.28 10.84C3.28 8.58 3.96 7.88 5.85 8.01L5.85 5.95C5.67 5.92 5.52 5.91 5.28 5.91ZM13.96 9.74C13.96 7.81 12.70 5.91 10.21 5.91C7.71 5.91 6.22 7.69 6.22 9.87C6.22 12.50 7.92 13.78 10.07 13.78C11.98 13.78 13.38 12.82 13.82 11.13L11.34 11.13C11.24 11.70 10.81 12.07 10.09 12.07C9.38 12.07 8.83 11.72 8.71 10.47L13.92 10.47C13.94 10.22 13.96 9.97 13.96 9.74ZM10.08 7.62C10.75 7.62 11.19 8.05 11.33 8.93L8.79 8.93C8.96 8.01 9.42 7.62 10.08 7.62ZM20.59 5.91C18.61 5.91 17.32 6.83 17.32 8.32C17.32 9.59 18.17 10.25 19.60 10.58C20.93 10.89 21.41 11.16 21.41 11.63C21.41 12.03 21.06 12.21 20.61 12.21C20.08 12.21 19.63 11.83 19.49 11.26L17.01 11.26C17.21 12.94 18.59 13.78 20.62 13.78C22.43 13.78 23.93 13.03 23.93 11.44C23.93 10.00 22.96 9.41 21.60 9.07C20.17 8.72 19.84 8.44 19.84 8.02C19.84 7.70 20.09 7.48 20.44 7.48C20.89 7.48 21.14 7.77 21.25 8.29L23.73 8.29C23.53 6.93 22.46 5.91 20.59 5.91ZM32.23 9.74C32.23 7.81 30.97 5.91 28.48 5.91C25.98 5.91 24.49 7.69 24.49 9.87C24.49 12.50 26.19 13.78 28.34 13.78C30.25 13.78 31.65 12.82 32.09 11.13L29.61 11.13C29.51 11.70 29.08 12.07 28.36 12.07C27.65 12.07 27.10 11.72 26.98 10.47L32.19 10.47C32.21 10.22 32.23 9.97 32.23 9.74ZM28.35 7.62C29.02 7.62 29.46 8.05 29.60 8.93L27.06 8.93C27.23 8.01 27.69 7.62 28.35 7.62ZM37.70 13.58L40.17 13.58C40.05 12.75 40.03 12.25 40.03 11.69L40.03 9.59C40.03 9.13 40.01 8.69 39.98 8.32C39.87 6.96 39.06 5.91 36.69 5.91C34.80 5.91 33.25 6.90 33.24 8.65L35.62 8.64C35.66 7.99 35.99 7.62 36.58 7.62C37.13 7.62 37.44 7.95 37.48 8.33C37.51 8.57 37.51 8.72 37.51 8.88L37.51 8.99L37.03 8.99C34.50 8.99 32.98 9.97 32.98 11.56C32.98 13.01 34.15 13.78 35.38 13.78C36.06 13.78 36.69 13.61 37.23 13.27L37.53 12.49ZM36.41 12.07C35.91 12.07 35.56 11.82 35.56 11.37C35.56 10.63 36.37 10.33 37.51 10.42L37.51 10.91C37.51 11.69 36.92 12.07 36.41 12.07ZM46.06 5.91C45.58 5.91 45.00 6.12 44.59 6.57L44.06 7.62L44.06 6.10L41.54 6.10L41.54 13.58L44.06 13.58L44.06 10.84C44.06 8.58 44.74 7.88 46.63 8.01L46.63 5.95C46.45 5.92 46.30 5.91 46.06 5.91ZM50.93 5.91C48.73 5.91 47.00 7.35 47.00 9.93C47.00 12.39 48.62 13.78 50.76 13.78C52.79 13.78 54.29 12.77 54.57 10.84L52.09 10.84C51.95 11.65 51.48 12.07 50.90 12.07C50.05 12.07 49.57 11.37 49.57 9.77C49.57 8.33 50.04 7.62 50.88 7.62C51.51 7.62 52.00 7.98 52.11 8.96L54.54 8.96C54.47 7.28 53.13 5.91 50.93 5.91ZM63.15 7.94C62.96 6.64 62.05 5.91 60.51 5.91C59.82 5.91 59.29 6.06 58.83 6.34L58.16 7.27L58.16 3.22L55.64 3.22L55.64 13.58L58.16 13.58L58.16 10.05C58.16 8.36 58.70 7.62 59.47 7.62C60.23 7.62 60.62 8.04 60.68 8.75C60.70 9.13 60.70 9.53 60.70 9.77L60.70 13.58L63.22 13.58L63.22 9.35C63.22 8.75 63.21 8.32 63.15 7.94ZM74.44 9.74C74.44 7.81 73.18 5.91 70.69 5.91C68.19 5.91 66.70 7.69 66.70 9.87C66.70 12.50 68.40 13.78 70.55 13.78C72.46 13.78 73.86 12.82 74.30 11.13L71.82 11.13C71.72 11.70 71.29 12.07 70.57 12.07C69.86 12.07 69.31 11.72 69.19 10.47L74.40 10.47C74.42 10.22 74.44 9.97 74.44 9.74ZM70.56 7.62C71.23 7.62 71.67 8.05 71.81 8.93L69.27 8.93C69.44 8.01 69.90 7.62 70.56 7.62ZM80.05 5.91C79.58 5.91 78.99 6.12 78.58 6.57L78.05 7.62L78.05 6.10L75.53 6.10L75.53 13.58L78.05 13.58L78.05 10.84C78.05 8.58 78.74 7.88 80.63 8.01L80.63 5.95C80.44 5.92 80.29 5.91 80.05 5.91Z"></path></g><!----><!----></svg>