<svg data-v-fde0c5aa="" xmlns="http://www.w3.org/2000/svg" viewBox="0 0 300 300" class="iconAboveSlogan"><!----><defs data-v-fde0c5aa=""><!----></defs><rect data-v-fde0c5aa="" fill="transparent" x="0" y="0" width="300px" height="300px" class="logo-background-square"></rect><defs data-v-fde0c5aa=""><linearGradient data-v-fde0c5aa="" gradientTransform="rotate(25)" id="5adf761b-8573-420b-8d75-c5207d6341d5" x1="0%" y1="0%" x2="100%" y2="0%"><stop data-v-fde0c5aa="" offset="0%" stop-color="#676767" stop-opacity="1"></stop><stop data-v-fde0c5aa="" offset="100%" stop-color="#9D5F27" stop-opacity="1"></stop></linearGradient></defs><g data-v-fde0c5aa="" id="1ff8897f-d901-43dd-858a-fc60a58a39dc" fill="url(#5adf761b-8573-420b-8d75-c5207d6341d5)" transform="matrix(3.9003899097442627,0,0,3.9003899097442627,16.68466855598895,147.12037974095017)"><path d="M0.85 13.51L0.85 6.65L1.89 6.65L2.04 7.78L2.04 7.78Q2.58 7.13 3.06 6.82L3.06 6.82L3.06 6.82Q3.54 6.51 4.07 6.51L4.07 6.51L4.07 6.51Q4.24 6.51 4.40 6.55L4.40 6.55L4.27 7.94L4.27 7.94Q4.09 7.90 3.85 7.90L3.85 7.90L3.85 7.90Q3.33 7.90 2.87 8.13L2.87 8.13L2.87 8.13Q2.41 8.36 2.20 8.67L2.20 8.67L2.20 13.51L0.85 13.51ZM8.57 13.65L8.57 13.65Q7.39 13.65 6.56 13.17L6.56 13.17L6.56 13.17Q5.73 12.68 5.29 11.86L5.29 11.86L5.29 11.86Q4.86 11.03 4.86 10.02L4.86 10.02L4.86 10.02Q4.86 9.06 5.26 8.25L5.26 8.25L5.26 8.25Q5.66 7.45 6.42 6.98L6.42 6.98L6.42 6.98Q7.18 6.51 8.22 6.51L8.22 6.51L8.22 6.51Q9.53 6.51 10.35 7.28L10.35 7.28L10.35 7.28Q11.17 8.05 11.17 9.41L11.17 9.41L11.17 9.41Q11.17 9.76 11.12 10.08L11.12 10.08L6.15 10.08L6.15 10.08Q6.27 11.41 6.96 11.97L6.96 11.97L6.96 11.97Q7.64 12.53 8.72 12.53L8.72 12.53L8.72 12.53Q9.80 12.53 10.70 12.12L10.70 12.12L10.86 13.12L10.86 13.12Q9.67 13.65 8.57 13.65L8.57 13.65ZM6.26 9.21L9.87 9.21L9.87 9.21Q9.87 8.47 9.45 8.05L9.45 8.05L9.45 8.05Q9.03 7.63 8.19 7.63L8.19 7.63L8.19 7.63Q7.38 7.63 6.92 8.03L6.92 8.03L6.92 8.03Q6.45 8.43 6.26 9.21L6.26 9.21ZM17.54 13.65L17.54 13.65Q16.73 13.65 16.12 13.46L16.12 13.46L16.12 13.46Q15.51 13.27 15.19 13.05L15.19 13.05L15.34 11.83L15.34 11.83Q15.62 12.08 16.21 12.31L16.21 12.31L16.21 12.31Q16.79 12.53 17.49 12.53L17.49 12.53L17.49 12.53Q18.14 12.53 18.50 12.31L18.50 12.31L18.50 12.31Q18.86 12.08 18.86 11.68L18.86 11.68L18.86 11.68Q18.86 11.20 18.47 10.96L18.47 10.96L18.47 10.96Q18.07 10.71 17.49 10.54L17.49 10.54L17.49 10.54Q16.84 10.37 16.40 10.18L16.40 10.18L16.40 10.18Q15.96 10.00 15.65 9.60L15.65 9.60L15.65 9.60Q15.33 9.21 15.33 8.57L15.33 8.57L15.33 8.57Q15.33 7.69 15.96 7.10L15.96 7.10L15.96 7.10Q16.59 6.51 17.91 6.51L17.91 6.51L17.91 6.51Q18.51 6.51 18.93 6.63L18.93 6.63L18.93 6.63Q19.35 6.75 19.77 6.96L19.77 6.96L19.61 8.11L19.61 8.11Q19.28 7.83 18.87 7.67L18.87 7.67L18.87 7.67Q18.47 7.50 17.93 7.50L17.93 7.50L17.93 7.50Q17.32 7.50 16.96 7.73L16.96 7.73L16.96 7.73Q16.60 7.97 16.60 8.43L16.60 8.43L16.60 8.43Q16.60 8.74 16.77 8.93L16.77 8.93L16.77 8.93Q16.94 9.11 17.25 9.24L17.25 9.24L17.25 9.24Q17.56 9.37 18.20 9.56L18.20 9.56L18.20 9.56Q19.00 9.80 19.58 10.23L19.58 10.23L19.58 10.23Q20.16 10.67 20.16 11.61L20.16 11.61L20.16 11.61Q20.16 12.45 19.57 13.05L19.57 13.05L19.57 13.05Q18.97 13.65 17.54 13.65L17.54 13.65ZM24.68 13.65L24.68 13.65Q23.51 13.65 22.67 13.17L22.67 13.17L22.67 13.17Q21.84 12.68 21.41 11.86L21.41 11.86L21.41 11.86Q20.97 11.03 20.97 10.02L20.97 10.02L20.97 10.02Q20.97 9.06 21.37 8.25L21.37 8.25L21.37 8.25Q21.77 7.45 22.53 6.98L22.53 6.98L22.53 6.98Q23.30 6.51 24.33 6.51L24.33 6.51L24.33 6.51Q25.65 6.51 26.47 7.28L26.47 7.28L26.47 7.28Q27.29 8.05 27.29 9.41L27.29 9.41L27.29 9.41Q27.29 9.76 27.23 10.08L27.23 10.08L22.26 10.08L22.26 10.08Q22.39 11.41 23.07 11.97L23.07 11.97L23.07 11.97Q23.76 12.53 24.84 12.53L24.84 12.53L24.84 12.53Q25.91 12.53 26.81 12.12L26.81 12.12L26.98 13.12L26.98 13.12Q25.79 13.65 24.68 13.65L24.68 13.65ZM22.37 9.21L25.98 9.21L25.98 9.21Q25.98 8.47 25.56 8.05L25.56 8.05L25.56 8.05Q25.14 7.63 24.30 7.63L24.30 7.63L24.30 7.63Q23.49 7.63 23.03 8.03L23.03 8.03L23.03 8.03Q22.57 8.43 22.37 9.21L22.37 9.21ZM30.16 13.65L30.16 13.65Q29.20 13.65 28.62 13.09L28.62 13.09L28.62 13.09Q28.04 12.53 28.04 11.66L28.04 11.66L28.04 11.66Q28.04 10.36 29.27 9.80L29.27 9.80L29.27 9.80Q30.51 9.24 32.14 9.21L32.14 9.21L32.14 9.21Q32.14 8.29 31.79 7.96L31.79 7.96L31.79 7.96Q31.43 7.63 30.65 7.63L30.65 7.63L30.65 7.63Q30.21 7.63 29.78 7.76L29.78 7.76L29.78 7.76Q29.34 7.90 28.84 8.25L28.84 8.25L28.66 7.22L28.66 7.22Q29.08 6.90 29.69 6.71L29.69 6.71L29.69 6.71Q30.31 6.51 30.98 6.51L30.98 6.51L30.98 6.51Q31.86 6.51 32.39 6.82L32.39 6.82L32.39 6.82Q32.91 7.13 33.16 7.84L33.16 7.84L33.16 7.84Q33.40 8.55 33.40 9.80L33.40 9.80L33.40 11.20L33.40 11.20Q33.40 11.76 33.45 12.05L33.45 12.05L33.45 12.05Q33.50 12.33 33.67 12.49L33.67 12.49L33.67 12.49Q33.84 12.64 34.19 12.64L34.19 12.64L34.31 12.64L34.12 13.65L34.02 13.65L34.02 13.65Q33.43 13.65 33.10 13.54L33.10 13.54L33.10 13.54Q32.76 13.43 32.59 13.22L32.59 13.22L32.59 13.22Q32.41 13.01 32.26 12.64L32.26 12.64L32.26 12.64Q31.39 13.65 30.16 13.65L30.16 13.65ZM30.39 12.64L30.39 12.64Q30.90 12.64 31.37 12.39L31.37 12.39L31.37 12.39Q31.84 12.14 32.14 11.72L32.14 11.72L32.14 10.08L32.14 10.08Q30.63 10.14 29.98 10.48L29.98 10.48L29.98 10.48Q29.33 10.82 29.33 11.59L29.33 11.59L29.33 11.59Q29.33 12.12 29.62 12.38L29.62 12.38L29.62 12.38Q29.90 12.64 30.39 12.64L30.39 12.64ZM35.28 13.51L35.28 6.65L36.32 6.65L36.47 7.78L36.47 7.78Q37.00 7.13 37.48 6.82L37.48 6.82L37.48 6.82Q37.97 6.51 38.50 6.51L38.50 6.51L38.50 6.51Q38.67 6.51 38.82 6.55L38.82 6.55L38.70 7.94L38.70 7.94Q38.51 7.90 38.28 7.90L38.28 7.90L38.28 7.90Q37.76 7.90 37.30 8.13L37.30 8.13L37.30 8.13Q36.83 8.36 36.62 8.67L36.62 8.67L36.62 13.51L35.28 13.51ZM42.85 13.65L42.85 13.65Q41.73 13.65 40.93 13.19L40.93 13.19L40.93 13.19Q40.12 12.73 39.72 11.92L39.72 11.92L39.72 11.92Q39.31 11.12 39.31 10.12L39.31 10.12L39.31 10.12Q39.31 8.50 40.23 7.50L40.23 7.50L40.23 7.50Q41.15 6.51 42.95 6.51L42.95 6.51L42.95 6.51Q44.02 6.51 44.83 6.92L44.83 6.92L44.63 8.02L44.63 8.02Q43.78 7.63 42.92 7.63L42.92 7.63L42.92 7.63Q41.80 7.63 41.20 8.27L41.20 8.27L41.20 8.27Q40.60 8.90 40.60 10.07L40.60 10.07L40.60 10.07Q40.60 11.23 41.18 11.89L41.18 11.89L41.18 11.89Q41.76 12.54 42.90 12.54L42.90 12.54L42.90 12.54Q43.81 12.54 44.65 12.12L44.65 12.12L44.81 13.13L44.81 13.13Q44.51 13.34 43.97 13.50L43.97 13.50L43.97 13.50Q43.43 13.65 42.85 13.65L42.85 13.65ZM49.34 6.51L49.34 6.51Q50.64 6.51 51.32 7.36L51.32 7.36L51.32 7.36Q52.01 8.22 52.01 9.69L52.01 9.69L52.01 13.51L50.75 13.51L50.75 9.84L50.75 9.84Q50.75 8.71 50.34 8.17L50.34 8.17L50.34 8.17Q49.92 7.63 49.06 7.63L49.06 7.63L49.06 7.63Q48.52 7.63 48.08 7.88L48.08 7.88L48.08 7.88Q47.63 8.12 47.32 8.57L47.32 8.57L47.32 13.51L46.05 13.51L46.05 3.01L47.32 3.01L47.32 7.31L47.32 7.31Q47.73 6.92 48.21 6.71L48.21 6.71L48.21 6.71Q48.69 6.51 49.34 6.51L49.34 6.51ZM60.09 13.65L60.09 13.65Q58.91 13.65 58.08 13.17L58.08 13.17L58.08 13.17Q57.25 12.68 56.81 11.86L56.81 11.86L56.81 11.86Q56.38 11.03 56.38 10.02L56.38 10.02L56.38 10.02Q56.38 9.06 56.78 8.25L56.78 8.25L56.78 8.25Q57.18 7.45 57.94 6.98L57.94 6.98L57.94 6.98Q58.70 6.51 59.74 6.51L59.74 6.51L59.74 6.51Q61.05 6.51 61.87 7.28L61.87 7.28L61.87 7.28Q62.69 8.05 62.69 9.41L62.69 9.41L62.69 9.41Q62.69 9.76 62.64 10.08L62.64 10.08L57.67 10.08L57.67 10.08Q57.79 11.41 58.48 11.97L58.48 11.97L58.48 11.97Q59.16 12.53 60.24 12.53L60.24 12.53L60.24 12.53Q61.32 12.53 62.22 12.12L62.22 12.12L62.38 13.12L62.38 13.12Q61.19 13.65 60.09 13.65L60.09 13.65ZM57.78 9.21L61.39 9.21L61.39 9.21Q61.39 8.47 60.97 8.05L60.97 8.05L60.97 8.05Q60.55 7.63 59.71 7.63L59.71 7.63L59.71 7.63Q58.90 7.63 58.44 8.03L58.44 8.03L58.44 8.03Q57.97 8.43 57.78 9.21L57.78 9.21ZM63.97 13.51L63.97 6.65L65.00 6.65L65.16 7.78L65.16 7.78Q65.69 7.13 66.17 6.82L66.17 6.82L66.17 6.82Q66.65 6.51 67.19 6.51L67.19 6.51L67.19 6.51Q67.35 6.51 67.51 6.55L67.51 6.55L67.38 7.94L67.38 7.94Q67.20 7.90 66.96 7.90L66.96 7.90L66.96 7.90Q66.44 7.90 65.98 8.13L65.98 8.13L65.98 8.13Q65.52 8.36 65.31 8.67L65.31 8.67L65.31 13.51L63.97 13.51Z"></path></g><defs data-v-fde0c5aa=""><linearGradient data-v-fde0c5aa="" gradientTransform="rotate(25)" id="7b072d44-8d62-4fee-b1e0-9892ce91f036" x1="0%" y1="0%" x2="100%" y2="0%"><stop data-v-fde0c5aa="" offset="0%" stop-color="#676767" stop-opacity="1"></stop><stop data-v-fde0c5aa="" offset="100%" stop-color="#9D5F27" stop-opacity="1"></stop></linearGradient></defs><g data-v-fde0c5aa="" id="1f52999b-8410-47ff-8338-16b8610c2495" stroke="none" fill="url(#7b072d44-8d62-4fee-b1e0-9892ce91f036)" transform="matrix(0.8349865078926086,0,0,0.8349865078926086,108.25067901146029,64.41086121594898)"><path d="M80.786 49.336c-.128-.058-.271-.094-.41-.136.111-2.757.148-5.596.1-7.91-.24-11.487-4.782-20.534-13.137-26.165-8.482-5.716-19.373-6.977-29.134-3.372-15.958 5.892-19.097 19.242-18.718 37.49-.09.03-.187.054-.273.093-3.243 1.477-1.58 5.172-.78 6.948l.112.25c.957 2.146 1.64 4.336 2.364 6.654l.187.596c.46 1.472 1.591 3.333 3.381 4.145a4.213 4.213 0 0 0 1.751.386c.226 0 .452-.036.677-.073 2.84 10.921 11.486 21.085 19.677 22.93 1.146.257 2.29.386 3.427.386 3.084 0 6.133-.946 9.098-2.829 7.165-4.549 12.125-13.597 13.924-20.519.228.037.455.074.682.074.609 0 1.214-.133 1.799-.398 1.81-.822 2.938-2.658 3.39-4.102l.187-.596c.723-2.318 1.407-4.508 2.365-6.654l.111-.25c.8-1.776 2.463-5.471-.78-6.948zM25.304 66.107c-.98-.444-1.882-1.59-2.3-2.92l-.185-.595c-.709-2.271-1.442-4.62-2.446-6.873l-.116-.256c-1.067-2.37-1.417-3.76-.214-4.307a1.45 1.45 0 0 1 .402-.105c.027.002.055.002.083.002.04-.001.078-.01.116-.015.158-.011.327.007.495.024.096.01.188.007.287.024.173.03.348.084.523.135.095.028.19.046.285.079.17.06.33.134.492.205.094.042.193.077.284.122.244.122.474.253.677.387.256.17.495.364.72.569.073.066.137.14.206.209.11.11.211.226.31.343.027.793.061 1.585.105 2.376-.492-.365-.992-.72-1.36-.937a1 1 0 1 0-1.018 1.722c.632.374 1.884 1.341 2.577 1.892l.022.228c.03.305.07.608.103.912.07.646.14 1.29.227 1.93.05.37.11.733.165 1.1.086.57.172 1.14.27 1.702.069.389.145.768.219 1.152.07.364.132.735.207 1.094a2.179 2.179 0 0 1-1.136-.199zm32.732 20.934c-3.595 2.281-7.3 3.014-11.013 2.18-7.633-1.72-16.073-11.992-18.43-22.432-.81-3.587-1.352-7.508-1.566-11.337-.043-.777-.073-1.554-.099-2.332.031-.099.05-.201.05-.305 0-.12-.026-.24-.07-.356-.024-.85-.026-1.725-.03-2.596-.003-.491-.019-.969-.015-1.466.009-1.416.041-2.854.099-4.305.026-.646.04-1.313.057-1.991.063-2.798.129-5.691.935-8.107 1.621-4.86 7.367-5.03 12.436-5.18.636-.018 1.252-.036 1.835-.064 9.169-.438 16.188-.24 22.752.642 3.011.404 6.707 1.734 7.208 5.779.755 6.101 1.04 12.023.847 17.601-.173 4.963-.745 9.669-1.7 13.987-1.47 6.636-6.257 15.813-13.296 20.282zm21.707-31.578l-.115.256c-1.005 2.253-1.738 4.602-2.447 6.873l-.186.595c-.406 1.295-1.312 2.425-2.309 2.877a2.257 2.257 0 0 1-1.206.209c.1-.48.179-.978.27-1.467.08-.442.168-.879.242-1.328.12-.729.222-1.474.323-2.22.052-.39.114-.77.161-1.165.062-.515.107-1.042.159-1.565.692-.55 1.946-1.518 2.58-1.892a1 1 0 0 0-1.017-1.723c-.361.213-.85.558-1.332.915.06-.871.117-1.744.151-2.632.102-.124.209-.245.324-.363.072-.073.136-.15.213-.22.234-.214.486-.418.76-.599.789-.522 2.012-1.03 2.985-.991.271.011.486.055.658.133 1.203.548.853 1.936-.214 4.307z"></path><path d="M31.668 41.744c4.551-4.155 8.683-3.497 13.873-1.091a1 1 0 1 0 .84-1.814c-5.771-2.676-10.711-3.457-16.061 1.427a1 1 0 0 0 1.348 1.478zM54.528 45.413a1 1 0 1 0 .802 1.832c5.397-2.361 9.401-2.891 13.898 1.395a.996.996 0 0 0 1.413-.034 1 1 0 0 0-.034-1.413c-5.26-5.015-10.232-4.338-16.08-1.78z"></path><circle cx="61.496" cy="50.851" r="1.689"></circle><path d="M51.346 66.29a1 1 0 0 0 .929.105l5.53-2.169a1 1 0 0 0-.731-1.862l-4.164 1.634v-12.19a1 1 0 0 0-2 0v13.656a1 1 0 0 0 .436.826zM60.342 72.125c-5.995 2.42-12.419 2.416-18.084-.013a1 1 0 1 0-.788 1.838 24.618 24.618 0 0 0 9.724 1.988c3.311 0 6.663-.652 9.897-1.958a1 1 0 0 0-.749-1.855zM47.146 54.98a8.822 8.822 0 0 0 .533-6.775c-1.513-4.655-6.53-7.209-11.188-5.7a8.82 8.82 0 0 0-5.167 4.414 8.822 8.822 0 0 0-.532 6.775 8.806 8.806 0 0 0 3.552 4.66l-3.03 5.954a1 1 0 1 0 1.783.907l3.029-5.951a8.793 8.793 0 0 0 5.853.13 8.82 8.82 0 0 0 5.167-4.415zm-10.103 2.482a6.953 6.953 0 0 1-.928-.382l-.002-.001a6.95 6.95 0 0 1-.853-.524 6.822 6.822 0 0 1-2.566-3.48c-.569-1.747-.422-3.61.412-5.248s2.255-2.85 4.003-3.419a6.845 6.845 0 0 1 2.121-.337c2.9 0 5.603 1.85 6.546 4.752a6.886 6.886 0 0 1-4.415 8.668 6.82 6.82 0 0 1-4.318-.03z"></path><path d="M39.305 49.162c-.933 0-1.688.756-1.688 1.689 0 .264.065.51.173.733.158.326.417.59.737.757.234.123.496.198.778.198.088 0 .172-.013.256-.025a1.684 1.684 0 0 0-.256-3.352z"></path></g><defs data-v-fde0c5aa=""><linearGradient data-v-fde0c5aa="" gradientTransform="rotate(25)" id="1a84ec0d-a8fa-40ed-864d-76eb4e4e1b9f" x1="0%" y1="0%" x2="100%" y2="0%"><stop data-v-fde0c5aa="" offset="0%" stop-color="#676767" stop-opacity="1"></stop><stop data-v-fde0c5aa="" offset="100%" stop-color="#676767" stop-opacity="1"></stop></linearGradient></defs><g data-v-fde0c5aa="" id="5e137446-f5fc-4da6-ae65-ad058dcf819a" fill="url(#1a84ec0d-a8fa-40ed-864d-76eb4e4e1b9f)" transform="matrix(1.6688061952590942,0,0,1.6688061952590942,51.965982033204114,206.32218733919532)"><path d="M9.21 2.42L0.32 2.42L0.32 4.33L3.74 4.33L3.74 12.67L5.79 12.67L5.79 4.33L9.21 4.33L9.21 2.42ZM15.34 12.67L15.34 12.67Q13.15 12.67 11.68 11.20L11.68 11.20L11.68 11.20Q10.21 9.73 10.21 7.55L10.21 7.55L10.21 7.55Q10.21 5.36 11.68 3.89L11.68 3.89L11.68 3.89Q13.15 2.42 15.34 2.42L15.34 2.42L15.34 2.42Q17.53 2.42 19.00 3.89L19.00 3.89L19.00 3.89Q20.47 5.36 20.47 7.55L20.47 7.55L20.47 7.55Q20.47 9.73 19.00 11.20L19.00 11.20L19.00 11.20Q17.53 12.67 15.34 12.67L15.34 12.67ZM15.35 10.76L15.35 10.76L15.35 10.76Q16.71 10.76 17.56 9.84L17.56 9.84L17.56 9.84Q18.42 8.91 18.42 7.55L18.42 7.55L18.42 7.55Q18.42 6.18 17.56 5.26L17.56 5.26L17.56 5.26Q16.71 4.33 15.33 4.33L15.33 4.33L15.33 4.33Q13.97 4.33 13.12 5.26L13.12 5.26L13.12 5.26Q12.26 6.18 12.26 7.55L12.26 7.55L12.26 7.55Q12.26 8.91 13.12 9.84L13.12 9.84L13.12 9.84Q13.97 10.76 15.35 10.76ZM24.04 12.67L21.99 12.67L21.99 2.42L22.67 2.42L27.12 7.48L31.57 2.42L32.25 2.42L32.25 12.67L30.20 12.67L30.19 6.73L27.12 10.14L24.04 6.73L24.04 12.67ZM42.42 2.42L42.42 2.42Q43.85 2.42 44.63 2.76L44.63 2.76L44.63 2.76Q45.42 3.10 46.10 3.79L46.10 3.79L44.73 5.15L44.73 5.15Q44.05 4.33 42.82 4.33L42.82 4.33L42.82 4.33Q41.59 4.33 41.25 4.92L41.25 4.92L41.25 4.92Q40.91 5.50 41.25 5.91L41.25 5.91L41.25 5.91Q41.59 6.32 42.82 6.52L42.82 6.52L42.82 6.52Q44.12 6.66 45.18 7.38L45.18 7.38L45.18 7.38Q46.24 8.09 46.24 9.67L46.24 9.67L46.24 9.67Q46.24 10.90 45.11 11.79L45.11 11.79L45.11 11.79Q43.98 12.67 42.47 12.67L42.47 12.67L42.47 12.67Q41.04 12.67 40.09 12.26L40.09 12.26L40.09 12.26Q39.13 11.85 38.45 11.17L38.45 11.17L39.81 9.80L39.81 9.80Q40.50 10.62 42.14 10.76L42.14 10.76L42.14 10.76Q43.50 10.76 43.84 10.18L43.84 10.18L43.84 10.18Q44.18 9.60 43.84 9.02L43.84 9.02L43.84 9.02Q43.50 8.44 42.14 8.30L42.14 8.30L42.14 8.30Q40.91 8.16 39.88 7.55L39.88 7.55L39.88 7.55Q38.86 6.93 38.86 5.43L38.86 5.43L38.86 5.43Q38.86 4.07 40.02 3.24L40.02 3.24L40.02 3.24Q41.19 2.42 42.42 2.42L42.42 2.42ZM49.72 12.67L47.53 12.67L51.63 2.42L53.68 2.42L57.78 12.67L55.60 12.67L54.98 11.10L50.33 11.10L49.72 12.67ZM54.23 9.05L52.71 5.15L51.15 9.05L54.23 9.05ZM61.36 12.67L59.31 12.67L59.31 2.42L63.78 2.42L63.78 2.42Q67.37 2.42 67.37 5.37L67.37 5.37L67.37 5.37Q67.37 8.44 63.79 8.44L63.79 8.44L61.36 8.44L61.36 12.67ZM61.36 4.34L61.36 6.52L64.23 6.52L64.23 6.52Q65.47 6.50 65.50 5.39L65.50 5.39L65.50 5.39Q65.47 4.38 64.25 4.34L64.25 4.34L61.36 4.34ZM70.95 2.42L68.90 2.42L68.90 12.67L76.42 12.67L76.42 10.76L70.95 10.76L70.95 2.42ZM85.60 12.67L78.08 12.67L78.08 2.43L85.61 2.42L85.61 4.33L80.13 4.33L80.13 6.52L84.24 6.52L84.24 8.43L80.13 8.43L80.13 10.76L85.60 10.76L85.60 12.67ZM96.04 2.42L87.16 2.42L87.16 4.33L90.58 4.33L90.58 12.67L92.63 12.67L92.63 4.33L96.04 4.33L96.04 2.42ZM105.94 2.42L97.05 2.42L97.05 4.33L100.47 4.33L100.47 12.67L102.52 12.67L102.52 4.33L105.94 4.33L105.94 2.42ZM109.11 12.67L106.92 12.67L111.02 2.42L113.07 2.42L117.17 12.67L114.99 12.67L114.37 11.10L109.72 11.10L109.11 12.67ZM113.62 9.05L112.10 5.15L110.54 9.05L113.62 9.05Z"></path></g></svg>