<svg data-v-423bf9ae="" xmlns="http://www.w3.org/2000/svg" viewBox="0 0 375.90229785330047 60" class="font"><!----><!----><!----><g data-v-423bf9ae="" id="a33ac5c2-0a66-42fe-b672-378244ca5ae5" fill="black" transform="matrix(5.639098167419434,0,0,5.639098167419434,-4.793235778808594,-16.97368812561035)"><path d="M0.85 13.51L0.85 6.65L1.89 6.65L2.04 7.78L2.04 7.78Q2.58 7.13 3.06 6.82L3.06 6.82L3.06 6.82Q3.54 6.51 4.07 6.51L4.07 6.51L4.07 6.51Q4.24 6.51 4.40 6.55L4.40 6.55L4.27 7.94L4.27 7.94Q4.09 7.90 3.85 7.90L3.85 7.90L3.85 7.90Q3.33 7.90 2.87 8.13L2.87 8.13L2.87 8.13Q2.41 8.36 2.20 8.67L2.20 8.67L2.20 13.51L0.85 13.51ZM8.57 13.65L8.57 13.65Q7.39 13.65 6.56 13.17L6.56 13.17L6.56 13.17Q5.73 12.68 5.29 11.86L5.29 11.86L5.29 11.86Q4.86 11.03 4.86 10.02L4.86 10.02L4.86 10.02Q4.86 9.06 5.26 8.25L5.26 8.25L5.26 8.25Q5.66 7.45 6.42 6.98L6.42 6.98L6.42 6.98Q7.18 6.51 8.22 6.51L8.22 6.51L8.22 6.51Q9.53 6.51 10.35 7.28L10.35 7.28L10.35 7.28Q11.17 8.05 11.17 9.41L11.17 9.41L11.17 9.41Q11.17 9.76 11.12 10.08L11.12 10.08L6.15 10.08L6.15 10.08Q6.27 11.41 6.96 11.97L6.96 11.97L6.96 11.97Q7.64 12.53 8.72 12.53L8.72 12.53L8.72 12.53Q9.80 12.53 10.70 12.12L10.70 12.12L10.86 13.12L10.86 13.12Q9.67 13.65 8.57 13.65L8.57 13.65ZM6.26 9.21L9.87 9.21L9.87 9.21Q9.87 8.47 9.45 8.05L9.45 8.05L9.45 8.05Q9.03 7.63 8.19 7.63L8.19 7.63L8.19 7.63Q7.38 7.63 6.92 8.03L6.92 8.03L6.92 8.03Q6.45 8.43 6.26 9.21L6.26 9.21ZM17.54 13.65L17.54 13.65Q16.73 13.65 16.12 13.46L16.12 13.46L16.12 13.46Q15.51 13.27 15.19 13.05L15.19 13.05L15.34 11.83L15.34 11.83Q15.62 12.08 16.21 12.31L16.21 12.31L16.21 12.31Q16.79 12.53 17.49 12.53L17.49 12.53L17.49 12.53Q18.14 12.53 18.50 12.31L18.50 12.31L18.50 12.31Q18.86 12.08 18.86 11.68L18.86 11.68L18.86 11.68Q18.86 11.20 18.47 10.96L18.47 10.96L18.47 10.96Q18.07 10.71 17.49 10.54L17.49 10.54L17.49 10.54Q16.84 10.37 16.40 10.18L16.40 10.18L16.40 10.18Q15.96 10.00 15.65 9.60L15.65 9.60L15.65 9.60Q15.33 9.21 15.33 8.57L15.33 8.57L15.33 8.57Q15.33 7.69 15.96 7.10L15.96 7.10L15.96 7.10Q16.59 6.51 17.91 6.51L17.91 6.51L17.91 6.51Q18.51 6.51 18.93 6.63L18.93 6.63L18.93 6.63Q19.35 6.75 19.77 6.96L19.77 6.96L19.61 8.11L19.61 8.11Q19.28 7.83 18.87 7.67L18.87 7.67L18.87 7.67Q18.47 7.50 17.93 7.50L17.93 7.50L17.93 7.50Q17.32 7.50 16.96 7.73L16.96 7.73L16.96 7.73Q16.60 7.97 16.60 8.43L16.60 8.43L16.60 8.43Q16.60 8.74 16.77 8.93L16.77 8.93L16.77 8.93Q16.94 9.11 17.25 9.24L17.25 9.24L17.25 9.24Q17.56 9.37 18.20 9.56L18.20 9.56L18.20 9.56Q19.00 9.80 19.58 10.23L19.58 10.23L19.58 10.23Q20.16 10.67 20.16 11.61L20.16 11.61L20.16 11.61Q20.16 12.45 19.57 13.05L19.57 13.05L19.57 13.05Q18.97 13.65 17.54 13.65L17.54 13.65ZM24.68 13.65L24.68 13.65Q23.51 13.65 22.67 13.17L22.67 13.17L22.67 13.17Q21.84 12.68 21.41 11.86L21.41 11.86L21.41 11.86Q20.97 11.03 20.97 10.02L20.97 10.02L20.97 10.02Q20.97 9.06 21.37 8.25L21.37 8.25L21.37 8.25Q21.77 7.45 22.53 6.98L22.53 6.98L22.53 6.98Q23.30 6.51 24.33 6.51L24.33 6.51L24.33 6.51Q25.65 6.51 26.47 7.28L26.47 7.28L26.47 7.28Q27.29 8.05 27.29 9.41L27.29 9.41L27.29 9.41Q27.29 9.76 27.23 10.08L27.23 10.08L22.26 10.08L22.26 10.08Q22.39 11.41 23.07 11.97L23.07 11.97L23.07 11.97Q23.76 12.53 24.84 12.53L24.84 12.53L24.84 12.53Q25.91 12.53 26.81 12.12L26.81 12.12L26.98 13.12L26.98 13.12Q25.79 13.65 24.68 13.65L24.68 13.65ZM22.37 9.21L25.98 9.21L25.98 9.21Q25.98 8.47 25.56 8.05L25.56 8.05L25.56 8.05Q25.14 7.63 24.30 7.63L24.30 7.63L24.30 7.63Q23.49 7.63 23.03 8.03L23.03 8.03L23.03 8.03Q22.57 8.43 22.37 9.21L22.37 9.21ZM30.16 13.65L30.16 13.65Q29.20 13.65 28.62 13.09L28.62 13.09L28.62 13.09Q28.04 12.53 28.04 11.66L28.04 11.66L28.04 11.66Q28.04 10.36 29.27 9.80L29.27 9.80L29.27 9.80Q30.51 9.24 32.14 9.21L32.14 9.21L32.14 9.21Q32.14 8.29 31.79 7.96L31.79 7.96L31.79 7.96Q31.43 7.63 30.65 7.63L30.65 7.63L30.65 7.63Q30.21 7.63 29.78 7.76L29.78 7.76L29.78 7.76Q29.34 7.90 28.84 8.25L28.84 8.25L28.66 7.22L28.66 7.22Q29.08 6.90 29.69 6.71L29.69 6.71L29.69 6.71Q30.31 6.51 30.98 6.51L30.98 6.51L30.98 6.51Q31.86 6.51 32.39 6.82L32.39 6.82L32.39 6.82Q32.91 7.13 33.16 7.84L33.16 7.84L33.16 7.84Q33.40 8.55 33.40 9.80L33.40 9.80L33.40 11.20L33.40 11.20Q33.40 11.76 33.45 12.05L33.45 12.05L33.45 12.05Q33.50 12.33 33.67 12.49L33.67 12.49L33.67 12.49Q33.84 12.64 34.19 12.64L34.19 12.64L34.31 12.64L34.12 13.65L34.02 13.65L34.02 13.65Q33.43 13.65 33.10 13.54L33.10 13.54L33.10 13.54Q32.76 13.43 32.59 13.22L32.59 13.22L32.59 13.22Q32.41 13.01 32.26 12.64L32.26 12.64L32.26 12.64Q31.39 13.65 30.16 13.65L30.16 13.65ZM30.39 12.64L30.39 12.64Q30.90 12.64 31.37 12.39L31.37 12.39L31.37 12.39Q31.84 12.14 32.14 11.72L32.14 11.72L32.14 10.08L32.14 10.08Q30.63 10.14 29.98 10.48L29.98 10.48L29.98 10.48Q29.33 10.82 29.33 11.59L29.33 11.59L29.33 11.59Q29.33 12.12 29.62 12.38L29.62 12.38L29.62 12.38Q29.90 12.64 30.39 12.64L30.39 12.64ZM35.28 13.51L35.28 6.65L36.32 6.65L36.47 7.78L36.47 7.78Q37.00 7.13 37.48 6.82L37.48 6.82L37.48 6.82Q37.97 6.51 38.50 6.51L38.50 6.51L38.50 6.51Q38.67 6.51 38.82 6.55L38.82 6.55L38.70 7.94L38.70 7.94Q38.51 7.90 38.28 7.90L38.28 7.90L38.28 7.90Q37.76 7.90 37.30 8.13L37.30 8.13L37.30 8.13Q36.83 8.36 36.62 8.67L36.62 8.67L36.62 13.51L35.28 13.51ZM42.85 13.65L42.85 13.65Q41.73 13.65 40.93 13.19L40.93 13.19L40.93 13.19Q40.12 12.73 39.72 11.92L39.72 11.92L39.72 11.92Q39.31 11.12 39.31 10.12L39.31 10.12L39.31 10.12Q39.31 8.50 40.23 7.50L40.23 7.50L40.23 7.50Q41.15 6.51 42.95 6.51L42.95 6.51L42.95 6.51Q44.02 6.51 44.83 6.92L44.83 6.92L44.63 8.02L44.63 8.02Q43.78 7.63 42.92 7.63L42.92 7.63L42.92 7.63Q41.80 7.63 41.20 8.27L41.20 8.27L41.20 8.27Q40.60 8.90 40.60 10.07L40.60 10.07L40.60 10.07Q40.60 11.23 41.18 11.89L41.18 11.89L41.18 11.89Q41.76 12.54 42.90 12.54L42.90 12.54L42.90 12.54Q43.81 12.54 44.65 12.12L44.65 12.12L44.81 13.13L44.81 13.13Q44.51 13.34 43.97 13.50L43.97 13.50L43.97 13.50Q43.43 13.65 42.85 13.65L42.85 13.65ZM49.34 6.51L49.34 6.51Q50.64 6.51 51.32 7.36L51.32 7.36L51.32 7.36Q52.01 8.22 52.01 9.69L52.01 9.69L52.01 13.51L50.75 13.51L50.75 9.84L50.75 9.84Q50.75 8.71 50.34 8.17L50.34 8.17L50.34 8.17Q49.92 7.63 49.06 7.63L49.06 7.63L49.06 7.63Q48.52 7.63 48.08 7.88L48.08 7.88L48.08 7.88Q47.63 8.12 47.32 8.57L47.32 8.57L47.32 13.51L46.05 13.51L46.05 3.01L47.32 3.01L47.32 7.31L47.32 7.31Q47.73 6.92 48.21 6.71L48.21 6.71L48.21 6.71Q48.69 6.51 49.34 6.51L49.34 6.51ZM60.09 13.65L60.09 13.65Q58.91 13.65 58.08 13.17L58.08 13.17L58.08 13.17Q57.25 12.68 56.81 11.86L56.81 11.86L56.81 11.86Q56.38 11.03 56.38 10.02L56.38 10.02L56.38 10.02Q56.38 9.06 56.78 8.25L56.78 8.25L56.78 8.25Q57.18 7.45 57.94 6.98L57.94 6.98L57.94 6.98Q58.70 6.51 59.74 6.51L59.74 6.51L59.74 6.51Q61.05 6.51 61.87 7.28L61.87 7.28L61.87 7.28Q62.69 8.05 62.69 9.41L62.69 9.41L62.69 9.41Q62.69 9.76 62.64 10.08L62.64 10.08L57.67 10.08L57.67 10.08Q57.79 11.41 58.48 11.97L58.48 11.97L58.48 11.97Q59.16 12.53 60.24 12.53L60.24 12.53L60.24 12.53Q61.32 12.53 62.22 12.12L62.22 12.12L62.38 13.12L62.38 13.12Q61.19 13.65 60.09 13.65L60.09 13.65ZM57.78 9.21L61.39 9.21L61.39 9.21Q61.39 8.47 60.97 8.05L60.97 8.05L60.97 8.05Q60.55 7.63 59.71 7.63L59.71 7.63L59.71 7.63Q58.90 7.63 58.44 8.03L58.44 8.03L58.44 8.03Q57.97 8.43 57.78 9.21L57.78 9.21ZM63.97 13.51L63.97 6.65L65.00 6.65L65.16 7.78L65.16 7.78Q65.69 7.13 66.17 6.82L66.17 6.82L66.17 6.82Q66.65 6.51 67.19 6.51L67.19 6.51L67.19 6.51Q67.35 6.51 67.51 6.55L67.51 6.55L67.38 7.94L67.38 7.94Q67.20 7.90 66.96 7.90L66.96 7.90L66.96 7.90Q66.44 7.90 65.98 8.13L65.98 8.13L65.98 8.13Q65.52 8.36 65.31 8.67L65.31 8.67L65.31 13.51L63.97 13.51Z"></path></g><!----><!----></svg>