<svg data-v-fde0c5aa="" xmlns="http://www.w3.org/2000/svg" viewBox="0 0 300 300" class="font"><!----><defs data-v-fde0c5aa=""><!----></defs><rect data-v-fde0c5aa="" fill="transparent" x="0" y="0" width="300px" height="300px" class="logo-background-square"></rect><defs data-v-fde0c5aa=""><linearGradient data-v-fde0c5aa="" gradientTransform="rotate(25)" id="3c974e18-477a-4028-b574-5196d6a6c064" x1="0%" y1="0%" x2="100%" y2="0%"><stop data-v-fde0c5aa="" offset="0%" stop-color="#676767" stop-opacity="1"></stop><stop data-v-fde0c5aa="" offset="100%" stop-color="#9D5F27" stop-opacity="1"></stop></linearGradient></defs><g data-v-fde0c5aa="" id="a23078bb-0734-42b0-8393-39b5478b791d" fill="url(#3c974e18-477a-4028-b574-5196d6a6c064)" transform="matrix(2.8690662384033203,0,0,2.8690662384033203,37.56129362935609,121.43844650434337)"><path d="M0.85 13.51L0.85 6.65L1.89 6.65L2.04 7.78L2.04 7.78Q2.58 7.13 3.06 6.82L3.06 6.82L3.06 6.82Q3.54 6.51 4.07 6.51L4.07 6.51L4.07 6.51Q4.24 6.51 4.40 6.55L4.40 6.55L4.27 7.94L4.27 7.94Q4.09 7.90 3.85 7.90L3.85 7.90L3.85 7.90Q3.33 7.90 2.87 8.13L2.87 8.13L2.87 8.13Q2.41 8.36 2.20 8.67L2.20 8.67L2.20 13.51L0.85 13.51ZM8.57 13.65L8.57 13.65Q7.39 13.65 6.56 13.17L6.56 13.17L6.56 13.17Q5.73 12.68 5.29 11.86L5.29 11.86L5.29 11.86Q4.86 11.03 4.86 10.02L4.86 10.02L4.86 10.02Q4.86 9.06 5.26 8.25L5.26 8.25L5.26 8.25Q5.66 7.45 6.42 6.98L6.42 6.98L6.42 6.98Q7.18 6.51 8.22 6.51L8.22 6.51L8.22 6.51Q9.53 6.51 10.35 7.28L10.35 7.28L10.35 7.28Q11.17 8.05 11.17 9.41L11.17 9.41L11.17 9.41Q11.17 9.76 11.12 10.08L11.12 10.08L6.15 10.08L6.15 10.08Q6.27 11.41 6.96 11.97L6.96 11.97L6.96 11.97Q7.64 12.53 8.72 12.53L8.72 12.53L8.72 12.53Q9.80 12.53 10.70 12.12L10.70 12.12L10.86 13.12L10.86 13.12Q9.67 13.65 8.57 13.65L8.57 13.65ZM6.26 9.21L9.87 9.21L9.87 9.21Q9.87 8.47 9.45 8.05L9.45 8.05L9.45 8.05Q9.03 7.63 8.19 7.63L8.19 7.63L8.19 7.63Q7.38 7.63 6.92 8.03L6.92 8.03L6.92 8.03Q6.45 8.43 6.26 9.21L6.26 9.21ZM15.51 13.71L15.51 13.71Q14.64 13.71 13.75 13.52L13.75 13.52L13.75 13.52Q12.85 13.33 12.31 13.08L12.31 13.08L12.49 11.66L12.49 11.66Q13.19 12.00 14.07 12.25L14.07 12.25L14.07 12.25Q14.95 12.50 15.82 12.50L15.82 12.50L15.82 12.50Q16.80 12.50 17.34 12.14L17.34 12.14L17.34 12.14Q17.88 11.79 17.88 11.07L17.88 11.07L17.88 11.07Q17.88 10.54 17.61 10.18L17.61 10.18L17.61 10.18Q17.33 9.83 16.81 9.58L16.81 9.58L16.81 9.58Q16.28 9.34 15.34 9.06L15.34 9.06L15.34 9.06Q14.39 8.78 13.76 8.46L13.76 8.46L13.76 8.46Q13.13 8.13 12.75 7.57L12.75 7.57L12.75 7.57Q12.36 7.01 12.36 6.16L12.36 6.16L12.36 6.16Q12.36 4.97 13.28 4.24L13.28 4.24L13.28 4.24Q14.20 3.51 15.86 3.51L15.86 3.51L15.86 3.51Q16.76 3.51 17.56 3.71L17.56 3.71L17.56 3.71Q18.37 3.91 18.97 4.19L18.97 4.19L18.83 5.60L18.83 5.60Q18.05 5.14 17.32 4.93L17.32 4.93L17.32 4.93Q16.59 4.72 15.81 4.72L15.81 4.72L15.81 4.72Q14.90 4.72 14.36 5.05L14.36 5.05L14.36 5.05Q13.82 5.39 13.82 6.09L13.82 6.09L13.82 6.09Q13.82 6.57 14.06 6.87L14.06 6.87L14.06 6.87Q14.31 7.18 14.77 7.40L14.77 7.40L14.77 7.40Q15.23 7.62 16.06 7.87L16.06 7.87L16.06 7.87Q17.71 8.37 18.52 9.06L18.52 9.06L18.52 9.06Q19.33 9.76 19.33 10.98L19.33 10.98L19.33 10.98Q19.33 12.26 18.37 12.98L18.37 12.98L18.37 12.98Q17.40 13.71 15.51 13.71L15.51 13.71ZM23.91 13.65L23.91 13.65Q22.74 13.65 21.90 13.17L21.90 13.17L21.90 13.17Q21.07 12.68 20.64 11.86L20.64 11.86L20.64 11.86Q20.20 11.03 20.20 10.02L20.20 10.02L20.20 10.02Q20.20 9.06 20.60 8.25L20.60 8.25L20.60 8.25Q21 7.45 21.76 6.98L21.76 6.98L21.76 6.98Q22.53 6.51 23.56 6.51L23.56 6.51L23.56 6.51Q24.88 6.51 25.70 7.28L25.70 7.28L25.70 7.28Q26.52 8.05 26.52 9.41L26.52 9.41L26.52 9.41Q26.52 9.76 26.46 10.08L26.46 10.08L21.49 10.08L21.49 10.08Q21.62 11.41 22.30 11.97L22.30 11.97L22.30 11.97Q22.99 12.53 24.07 12.53L24.07 12.53L24.07 12.53Q25.14 12.53 26.04 12.12L26.04 12.12L26.21 13.12L26.21 13.12Q25.02 13.65 23.91 13.65L23.91 13.65ZM21.60 9.21L25.21 9.21L25.21 9.21Q25.21 8.47 24.79 8.05L24.79 8.05L24.79 8.05Q24.37 7.63 23.53 7.63L23.53 7.63L23.53 7.63Q22.72 7.63 22.26 8.03L22.26 8.03L22.26 8.03Q21.80 8.43 21.60 9.21L21.60 9.21ZM29.39 13.65L29.39 13.65Q28.43 13.65 27.85 13.09L27.85 13.09L27.85 13.09Q27.27 12.53 27.27 11.66L27.27 11.66L27.27 11.66Q27.27 10.36 28.50 9.80L28.50 9.80L28.50 9.80Q29.74 9.24 31.37 9.21L31.37 9.21L31.37 9.21Q31.37 8.29 31.02 7.96L31.02 7.96L31.02 7.96Q30.66 7.63 29.88 7.63L29.88 7.63L29.88 7.63Q29.44 7.63 29.01 7.76L29.01 7.76L29.01 7.76Q28.57 7.90 28.07 8.25L28.07 8.25L27.89 7.22L27.89 7.22Q28.31 6.90 28.92 6.71L28.92 6.71L28.92 6.71Q29.54 6.51 30.21 6.51L30.21 6.51L30.21 6.51Q31.09 6.51 31.62 6.82L31.62 6.82L31.62 6.82Q32.14 7.13 32.39 7.84L32.39 7.84L32.39 7.84Q32.63 8.55 32.63 9.80L32.63 9.80L32.63 11.20L32.63 11.20Q32.63 11.76 32.68 12.05L32.68 12.05L32.68 12.05Q32.73 12.33 32.90 12.49L32.90 12.49L32.90 12.49Q33.07 12.64 33.42 12.64L33.42 12.64L33.54 12.64L33.35 13.65L33.25 13.65L33.25 13.65Q32.66 13.65 32.33 13.54L32.33 13.54L32.33 13.54Q31.99 13.43 31.82 13.22L31.82 13.22L31.82 13.22Q31.64 13.01 31.49 12.64L31.49 12.64L31.49 12.64Q30.62 13.65 29.39 13.65L29.39 13.65ZM29.62 12.64L29.62 12.64Q30.13 12.64 30.60 12.39L30.60 12.39L30.60 12.39Q31.07 12.14 31.37 11.72L31.37 11.72L31.37 10.08L31.37 10.08Q29.86 10.14 29.21 10.48L29.21 10.48L29.21 10.48Q28.56 10.82 28.56 11.59L28.56 11.59L28.56 11.59Q28.56 12.12 28.85 12.38L28.85 12.38L28.85 12.38Q29.13 12.64 29.62 12.64L29.62 12.64ZM34.51 13.51L34.51 6.65L35.55 6.65L35.70 7.78L35.70 7.78Q36.23 7.13 36.71 6.82L36.71 6.82L36.71 6.82Q37.20 6.51 37.73 6.51L37.73 6.51L37.73 6.51Q37.90 6.51 38.05 6.55L38.05 6.55L37.93 7.94L37.93 7.94Q37.74 7.90 37.51 7.90L37.51 7.90L37.51 7.90Q36.99 7.90 36.53 8.13L36.53 8.13L36.53 8.13Q36.06 8.36 35.85 8.67L35.85 8.67L35.85 13.51L34.51 13.51ZM42.08 13.65L42.08 13.65Q40.96 13.65 40.16 13.19L40.16 13.19L40.16 13.19Q39.35 12.73 38.95 11.92L38.95 11.92L38.95 11.92Q38.54 11.12 38.54 10.12L38.54 10.12L38.54 10.12Q38.54 8.50 39.46 7.50L39.46 7.50L39.46 7.50Q40.38 6.51 42.18 6.51L42.18 6.51L42.18 6.51Q43.25 6.51 44.06 6.92L44.06 6.92L43.86 8.02L43.86 8.02Q43.01 7.63 42.15 7.63L42.15 7.63L42.15 7.63Q41.03 7.63 40.43 8.27L40.43 8.27L40.43 8.27Q39.83 8.90 39.83 10.07L39.83 10.07L39.83 10.07Q39.83 11.23 40.41 11.89L40.41 11.89L40.41 11.89Q40.99 12.54 42.13 12.54L42.13 12.54L42.13 12.54Q43.04 12.54 43.88 12.12L43.88 12.12L44.04 13.13L44.04 13.13Q43.74 13.34 43.20 13.50L43.20 13.50L43.20 13.50Q42.66 13.65 42.08 13.65L42.08 13.65ZM48.57 6.51L48.57 6.51Q49.87 6.51 50.55 7.36L50.55 7.36L50.55 7.36Q51.24 8.22 51.24 9.69L51.24 9.69L51.24 13.51L49.98 13.51L49.98 9.84L49.98 9.84Q49.98 8.71 49.57 8.17L49.57 8.17L49.57 8.17Q49.15 7.63 48.29 7.63L48.29 7.63L48.29 7.63Q47.75 7.63 47.31 7.88L47.31 7.88L47.31 7.88Q46.86 8.12 46.55 8.57L46.55 8.57L46.55 13.51L45.28 13.51L45.28 3.01L46.55 3.01L46.55 7.31L46.55 7.31Q46.96 6.92 47.44 6.71L47.44 6.71L47.44 6.71Q47.92 6.51 48.57 6.51L48.57 6.51ZM56.17 13.65L56.17 13.65Q54.99 13.65 54.16 13.17L54.16 13.17L54.16 13.17Q53.33 12.68 52.89 11.86L52.89 11.86L52.89 11.86Q52.46 11.03 52.46 10.02L52.46 10.02L52.46 10.02Q52.46 9.06 52.86 8.25L52.86 8.25L52.86 8.25Q53.26 7.45 54.02 6.98L54.02 6.98L54.02 6.98Q54.78 6.51 55.82 6.51L55.82 6.51L55.82 6.51Q57.13 6.51 57.95 7.28L57.95 7.28L57.95 7.28Q58.77 8.05 58.77 9.41L58.77 9.41L58.77 9.41Q58.77 9.76 58.72 10.08L58.72 10.08L53.75 10.08L53.75 10.08Q53.87 11.41 54.56 11.97L54.56 11.97L54.56 11.97Q55.24 12.53 56.32 12.53L56.32 12.53L56.32 12.53Q57.40 12.53 58.30 12.12L58.30 12.12L58.46 13.12L58.46 13.12Q57.27 13.65 56.17 13.65L56.17 13.65ZM53.86 9.21L57.47 9.21L57.47 9.21Q57.47 8.47 57.05 8.05L57.05 8.05L57.05 8.05Q56.63 7.63 55.79 7.63L55.79 7.63L55.79 7.63Q54.98 7.63 54.52 8.03L54.52 8.03L54.52 8.03Q54.05 8.43 53.86 9.21L53.86 9.21ZM60.05 13.51L60.05 6.65L61.08 6.65L61.24 7.78L61.24 7.78Q61.77 7.13 62.25 6.82L62.25 6.82L62.25 6.82Q62.73 6.51 63.27 6.51L63.27 6.51L63.27 6.51Q63.43 6.51 63.59 6.55L63.59 6.55L63.46 7.94L63.46 7.94Q63.28 7.90 63.04 7.90L63.04 7.90L63.04 7.90Q62.52 7.90 62.06 8.13L62.06 8.13L62.06 8.13Q61.60 8.36 61.39 8.67L61.39 8.67L61.39 13.51L60.05 13.51ZM64.32 13.51L64.32 12.03L65.83 12.03L65.83 13.51L64.32 13.51ZM70.87 6.51L70.87 6.51Q71.78 6.51 72.46 6.98L72.46 6.98L72.46 6.98Q73.14 7.45 73.50 8.26L73.50 8.26L73.50 8.26Q73.86 9.07 73.86 10.08L73.86 10.08L73.86 10.08Q73.86 11.10 73.52 11.91L73.52 11.91L73.52 11.91Q73.18 12.71 72.51 13.18L72.51 13.18L72.51 13.18Q71.83 13.65 70.87 13.65L70.87 13.65L70.87 13.65Q70.15 13.65 69.57 13.40L69.57 13.40L69.57 13.40Q68.98 13.15 68.64 12.67L68.64 12.67L68.64 16.90L67.38 16.90L67.38 6.65L68.36 6.65L68.50 7.60L68.50 7.60Q69.37 6.51 70.87 6.51L70.87 6.51ZM70.63 12.53L70.63 12.53Q71.54 12.53 72.06 11.88L72.06 11.88L72.06 11.88Q72.58 11.23 72.58 10.08L72.58 10.08L72.58 10.08Q72.58 8.93 72.06 8.28L72.06 8.28L72.06 8.28Q71.54 7.63 70.63 7.63L70.63 7.63L70.63 7.63Q69.73 7.63 69.15 8.26L69.15 8.26L69.15 8.26Q68.57 8.89 68.57 10.08L68.57 10.08L68.57 10.08Q68.57 11.31 69.15 11.92L69.15 11.92L69.15 11.92Q69.72 12.53 70.63 12.53L70.63 12.53ZM76.94 13.65L76.94 13.65Q76.02 13.65 75.59 13.17L75.59 13.17L75.59 13.17Q75.17 12.70 75.17 12.00L75.17 12.00L75.17 3.01L76.43 3.01L76.43 11.27L76.43 11.27Q76.43 11.89 76.50 12.17L76.50 12.17L76.50 12.17Q76.58 12.45 76.80 12.54L76.80 12.54L76.80 12.54Q77.03 12.64 77.53 12.64L77.53 12.64L77.35 13.65L76.94 13.65Z"></path></g><!----><!----></svg>