<svg data-v-fde0c5aa="" xmlns="http://www.w3.org/2000/svg" viewBox="0 0 300 300" class="iconAboveSlogan"><!----><defs data-v-fde0c5aa=""><!----></defs><rect data-v-fde0c5aa="" fill="transparent" x="0" y="0" width="300px" height="300px" class="logo-background-square"></rect><defs data-v-fde0c5aa=""><linearGradient data-v-fde0c5aa="" gradientTransform="rotate(25)" id="290137cb-ee99-4c23-ba58-82cf877c3058" x1="0%" y1="0%" x2="100%" y2="0%"><stop data-v-fde0c5aa="" offset="0%" stop-color="#676767" stop-opacity="1"></stop><stop data-v-fde0c5aa="" offset="100%" stop-color="#9D5F27" stop-opacity="1"></stop></linearGradient></defs><g data-v-fde0c5aa="" id="7d295be2-ad42-41f9-8cf0-1935f42d0019" fill="url(#290137cb-ee99-4c23-ba58-82cf877c3058)" transform="matrix(3.2552900314331055,0,0,3.2552900314331055,17.525979596837054,147.18931244175945)"><path d="M5.28 5.91C4.80 5.91 4.21 6.12 3.81 6.57L3.28 7.62L3.28 6.10L0.76 6.10L0.76 13.58L3.28 13.58L3.28 10.84C3.28 8.58 3.96 7.88 5.85 8.01L5.85 5.95C5.67 5.92 5.52 5.91 5.28 5.91ZM13.96 9.74C13.96 7.81 12.70 5.91 10.21 5.91C7.71 5.91 6.22 7.69 6.22 9.87C6.22 12.50 7.92 13.78 10.07 13.78C11.98 13.78 13.38 12.82 13.82 11.13L11.34 11.13C11.24 11.70 10.81 12.07 10.09 12.07C9.38 12.07 8.83 11.72 8.71 10.47L13.92 10.47C13.94 10.22 13.96 9.97 13.96 9.74ZM10.08 7.62C10.75 7.62 11.19 8.05 11.33 8.93L8.79 8.93C8.96 8.01 9.42 7.62 10.08 7.62ZM20.59 5.91C18.61 5.91 17.32 6.83 17.32 8.32C17.32 9.59 18.17 10.25 19.60 10.58C20.93 10.89 21.41 11.16 21.41 11.63C21.41 12.03 21.06 12.21 20.61 12.21C20.08 12.21 19.63 11.83 19.49 11.26L17.01 11.26C17.21 12.94 18.59 13.78 20.62 13.78C22.43 13.78 23.93 13.03 23.93 11.44C23.93 10.00 22.96 9.41 21.60 9.07C20.17 8.72 19.84 8.44 19.84 8.02C19.84 7.70 20.09 7.48 20.44 7.48C20.89 7.48 21.14 7.77 21.25 8.29L23.73 8.29C23.53 6.93 22.46 5.91 20.59 5.91ZM32.23 9.74C32.23 7.81 30.97 5.91 28.48 5.91C25.98 5.91 24.49 7.69 24.49 9.87C24.49 12.50 26.19 13.78 28.34 13.78C30.25 13.78 31.65 12.82 32.09 11.13L29.61 11.13C29.51 11.70 29.08 12.07 28.36 12.07C27.65 12.07 27.10 11.72 26.98 10.47L32.19 10.47C32.21 10.22 32.23 9.97 32.23 9.74ZM28.35 7.62C29.02 7.62 29.46 8.05 29.60 8.93L27.06 8.93C27.23 8.01 27.69 7.62 28.35 7.62ZM37.70 13.58L40.17 13.58C40.05 12.75 40.03 12.25 40.03 11.69L40.03 9.59C40.03 9.13 40.01 8.69 39.98 8.32C39.87 6.96 39.06 5.91 36.69 5.91C34.80 5.91 33.25 6.90 33.24 8.65L35.62 8.64C35.66 7.99 35.99 7.62 36.58 7.62C37.13 7.62 37.44 7.95 37.48 8.33C37.51 8.57 37.51 8.72 37.51 8.88L37.51 8.99L37.03 8.99C34.50 8.99 32.98 9.97 32.98 11.56C32.98 13.01 34.15 13.78 35.38 13.78C36.06 13.78 36.69 13.61 37.23 13.27L37.53 12.49ZM36.41 12.07C35.91 12.07 35.56 11.82 35.56 11.37C35.56 10.63 36.37 10.33 37.51 10.42L37.51 10.91C37.51 11.69 36.92 12.07 36.41 12.07ZM46.06 5.91C45.58 5.91 45.00 6.12 44.59 6.57L44.06 7.62L44.06 6.10L41.54 6.10L41.54 13.58L44.06 13.58L44.06 10.84C44.06 8.58 44.74 7.88 46.63 8.01L46.63 5.95C46.45 5.92 46.30 5.91 46.06 5.91ZM50.93 5.91C48.73 5.91 47.00 7.35 47.00 9.93C47.00 12.39 48.62 13.78 50.76 13.78C52.79 13.78 54.29 12.77 54.57 10.84L52.09 10.84C51.95 11.65 51.48 12.07 50.90 12.07C50.05 12.07 49.57 11.37 49.57 9.77C49.57 8.33 50.04 7.62 50.88 7.62C51.51 7.62 52.00 7.98 52.11 8.96L54.54 8.96C54.47 7.28 53.13 5.91 50.93 5.91ZM63.15 7.94C62.96 6.64 62.05 5.91 60.51 5.91C59.82 5.91 59.29 6.06 58.83 6.34L58.16 7.27L58.16 3.22L55.64 3.22L55.64 13.58L58.16 13.58L58.16 10.05C58.16 8.36 58.70 7.62 59.47 7.62C60.23 7.62 60.62 8.04 60.68 8.75C60.70 9.13 60.70 9.53 60.70 9.77L60.70 13.58L63.22 13.58L63.22 9.35C63.22 8.75 63.21 8.32 63.15 7.94ZM74.44 9.74C74.44 7.81 73.18 5.91 70.69 5.91C68.19 5.91 66.70 7.69 66.70 9.87C66.70 12.50 68.40 13.78 70.55 13.78C72.46 13.78 73.86 12.82 74.30 11.13L71.82 11.13C71.72 11.70 71.29 12.07 70.57 12.07C69.86 12.07 69.31 11.72 69.19 10.47L74.40 10.47C74.42 10.22 74.44 9.97 74.44 9.74ZM70.56 7.62C71.23 7.62 71.67 8.05 71.81 8.93L69.27 8.93C69.44 8.01 69.90 7.62 70.56 7.62ZM80.05 5.91C79.58 5.91 78.99 6.12 78.58 6.57L78.05 7.62L78.05 6.10L75.53 6.10L75.53 13.58L78.05 13.58L78.05 10.84C78.05 8.58 78.74 7.88 80.63 8.01L80.63 5.95C80.44 5.92 80.29 5.91 80.05 5.91Z"></path></g><defs data-v-fde0c5aa=""><linearGradient data-v-fde0c5aa="" gradientTransform="rotate(25)" id="6cc5df6c-5f55-4b9d-9da7-c7ebdbb00c05" x1="0%" y1="0%" x2="100%" y2="0%"><stop data-v-fde0c5aa="" offset="0%" stop-color="#676767" stop-opacity="1"></stop><stop data-v-fde0c5aa="" offset="100%" stop-color="#9D5F27" stop-opacity="1"></stop></linearGradient></defs><g data-v-fde0c5aa="" id="fb5090b9-f907-4fe5-8200-fdb7fdf9681a" stroke="none" fill="url(#6cc5df6c-5f55-4b9d-9da7-c7ebdbb00c05)" transform="matrix(0.7188584804534912,0,0,0.7188584804534912,114.0570803052152,73.85410514127379)"><path d="M80.786 49.336c-.128-.058-.271-.094-.41-.136.111-2.757.148-5.596.1-7.91-.24-11.487-4.782-20.534-13.137-26.165-8.482-5.716-19.373-6.977-29.134-3.372-15.958 5.892-19.097 19.242-18.718 37.49-.09.03-.187.054-.273.093-3.243 1.477-1.58 5.172-.78 6.948l.112.25c.957 2.146 1.64 4.336 2.364 6.654l.187.596c.46 1.472 1.591 3.333 3.381 4.145a4.213 4.213 0 0 0 1.751.386c.226 0 .452-.036.677-.073 2.84 10.921 11.486 21.085 19.677 22.93 1.146.257 2.29.386 3.427.386 3.084 0 6.133-.946 9.098-2.829 7.165-4.549 12.125-13.597 13.924-20.519.228.037.455.074.682.074.609 0 1.214-.133 1.799-.398 1.81-.822 2.938-2.658 3.39-4.102l.187-.596c.723-2.318 1.407-4.508 2.365-6.654l.111-.25c.8-1.776 2.463-5.471-.78-6.948zM25.304 66.107c-.98-.444-1.882-1.59-2.3-2.92l-.185-.595c-.709-2.271-1.442-4.62-2.446-6.873l-.116-.256c-1.067-2.37-1.417-3.76-.214-4.307a1.45 1.45 0 0 1 .402-.105c.027.002.055.002.083.002.04-.001.078-.01.116-.015.158-.011.327.007.495.024.096.01.188.007.287.024.173.03.348.084.523.135.095.028.19.046.285.079.17.06.33.134.492.205.094.042.193.077.284.122.244.122.474.253.677.387.256.17.495.364.72.569.073.066.137.14.206.209.11.11.211.226.31.343.027.793.061 1.585.105 2.376-.492-.365-.992-.72-1.36-.937a1 1 0 1 0-1.018 1.722c.632.374 1.884 1.341 2.577 1.892l.022.228c.03.305.07.608.103.912.07.646.14 1.29.227 1.93.05.37.11.733.165 1.1.086.57.172 1.14.27 1.702.069.389.145.768.219 1.152.07.364.132.735.207 1.094a2.179 2.179 0 0 1-1.136-.199zm32.732 20.934c-3.595 2.281-7.3 3.014-11.013 2.18-7.633-1.72-16.073-11.992-18.43-22.432-.81-3.587-1.352-7.508-1.566-11.337-.043-.777-.073-1.554-.099-2.332.031-.099.05-.201.05-.305 0-.12-.026-.24-.07-.356-.024-.85-.026-1.725-.03-2.596-.003-.491-.019-.969-.015-1.466.009-1.416.041-2.854.099-4.305.026-.646.04-1.313.057-1.991.063-2.798.129-5.691.935-8.107 1.621-4.86 7.367-5.03 12.436-5.18.636-.018 1.252-.036 1.835-.064 9.169-.438 16.188-.24 22.752.642 3.011.404 6.707 1.734 7.208 5.779.755 6.101 1.04 12.023.847 17.601-.173 4.963-.745 9.669-1.7 13.987-1.47 6.636-6.257 15.813-13.296 20.282zm21.707-31.578l-.115.256c-1.005 2.253-1.738 4.602-2.447 6.873l-.186.595c-.406 1.295-1.312 2.425-2.309 2.877a2.257 2.257 0 0 1-1.206.209c.1-.48.179-.978.27-1.467.08-.442.168-.879.242-1.328.12-.729.222-1.474.323-2.22.052-.39.114-.77.161-1.165.062-.515.107-1.042.159-1.565.692-.55 1.946-1.518 2.58-1.892a1 1 0 0 0-1.017-1.723c-.361.213-.85.558-1.332.915.06-.871.117-1.744.151-2.632.102-.124.209-.245.324-.363.072-.073.136-.15.213-.22.234-.214.486-.418.76-.599.789-.522 2.012-1.03 2.985-.991.271.011.486.055.658.133 1.203.548.853 1.936-.214 4.307z"></path><path d="M31.668 41.744c4.551-4.155 8.683-3.497 13.873-1.091a1 1 0 1 0 .84-1.814c-5.771-2.676-10.711-3.457-16.061 1.427a1 1 0 0 0 1.348 1.478zM54.528 45.413a1 1 0 1 0 .802 1.832c5.397-2.361 9.401-2.891 13.898 1.395a.996.996 0 0 0 1.413-.034 1 1 0 0 0-.034-1.413c-5.26-5.015-10.232-4.338-16.08-1.78z"></path><circle cx="61.496" cy="50.851" r="1.689"></circle><path d="M51.346 66.29a1 1 0 0 0 .929.105l5.53-2.169a1 1 0 0 0-.731-1.862l-4.164 1.634v-12.19a1 1 0 0 0-2 0v13.656a1 1 0 0 0 .436.826zM60.342 72.125c-5.995 2.42-12.419 2.416-18.084-.013a1 1 0 1 0-.788 1.838 24.618 24.618 0 0 0 9.724 1.988c3.311 0 6.663-.652 9.897-1.958a1 1 0 0 0-.749-1.855zM47.146 54.98a8.822 8.822 0 0 0 .533-6.775c-1.513-4.655-6.53-7.209-11.188-5.7a8.82 8.82 0 0 0-5.167 4.414 8.822 8.822 0 0 0-.532 6.775 8.806 8.806 0 0 0 3.552 4.66l-3.03 5.954a1 1 0 1 0 1.783.907l3.029-5.951a8.793 8.793 0 0 0 5.853.13 8.82 8.82 0 0 0 5.167-4.415zm-10.103 2.482a6.953 6.953 0 0 1-.928-.382l-.002-.001a6.95 6.95 0 0 1-.853-.524 6.822 6.822 0 0 1-2.566-3.48c-.569-1.747-.422-3.61.412-5.248s2.255-2.85 4.003-3.419a6.845 6.845 0 0 1 2.121-.337c2.9 0 5.603 1.85 6.546 4.752a6.886 6.886 0 0 1-4.415 8.668 6.82 6.82 0 0 1-4.318-.03z"></path><path d="M39.305 49.162c-.933 0-1.688.756-1.688 1.689 0 .264.065.51.173.733.158.326.417.59.737.757.234.123.496.198.778.198.088 0 .172-.013.256-.025a1.684 1.684 0 0 0-.256-3.352z"></path></g><defs data-v-fde0c5aa=""><linearGradient data-v-fde0c5aa="" gradientTransform="rotate(25)" id="0f994294-226c-4a63-a28a-3db56d5eca1a" x1="0%" y1="0%" x2="100%" y2="0%"><stop data-v-fde0c5aa="" offset="0%" stop-color="#676767" stop-opacity="1"></stop><stop data-v-fde0c5aa="" offset="100%" stop-color="#676767" stop-opacity="1"></stop></linearGradient></defs><g data-v-fde0c5aa="" id="2d620049-b5c1-43ae-b6a2-3757f51dfbc4" fill="url(#0f994294-226c-4a63-a28a-3db56d5eca1a)" transform="matrix(1.6688061952590942,0,0,1.6688061952590942,51.96598203320413,198.00869652514186)"><path d="M9.21 2.42L0.32 2.42L0.32 4.33L3.74 4.33L3.74 12.67L5.79 12.67L5.79 4.33L9.21 4.33L9.21 2.42ZM15.34 12.67L15.34 12.67Q13.15 12.67 11.68 11.20L11.68 11.20L11.68 11.20Q10.21 9.73 10.21 7.55L10.21 7.55L10.21 7.55Q10.21 5.36 11.68 3.89L11.68 3.89L11.68 3.89Q13.15 2.42 15.34 2.42L15.34 2.42L15.34 2.42Q17.53 2.42 19.00 3.89L19.00 3.89L19.00 3.89Q20.47 5.36 20.47 7.55L20.47 7.55L20.47 7.55Q20.47 9.73 19.00 11.20L19.00 11.20L19.00 11.20Q17.53 12.67 15.34 12.67L15.34 12.67ZM15.35 10.76L15.35 10.76L15.35 10.76Q16.71 10.76 17.56 9.84L17.56 9.84L17.56 9.84Q18.42 8.91 18.42 7.55L18.42 7.55L18.42 7.55Q18.42 6.18 17.56 5.26L17.56 5.26L17.56 5.26Q16.71 4.33 15.33 4.33L15.33 4.33L15.33 4.33Q13.97 4.33 13.12 5.26L13.12 5.26L13.12 5.26Q12.26 6.18 12.26 7.55L12.26 7.55L12.26 7.55Q12.26 8.91 13.12 9.84L13.12 9.84L13.12 9.84Q13.97 10.76 15.35 10.76ZM24.04 12.67L21.99 12.67L21.99 2.42L22.67 2.42L27.12 7.48L31.57 2.42L32.25 2.42L32.25 12.67L30.20 12.67L30.19 6.73L27.12 10.14L24.04 6.73L24.04 12.67ZM42.42 2.42L42.42 2.42Q43.85 2.42 44.63 2.76L44.63 2.76L44.63 2.76Q45.42 3.10 46.10 3.79L46.10 3.79L44.73 5.15L44.73 5.15Q44.05 4.33 42.82 4.33L42.82 4.33L42.82 4.33Q41.59 4.33 41.25 4.92L41.25 4.92L41.25 4.92Q40.91 5.50 41.25 5.91L41.25 5.91L41.25 5.91Q41.59 6.32 42.82 6.52L42.82 6.52L42.82 6.52Q44.12 6.66 45.18 7.38L45.18 7.38L45.18 7.38Q46.24 8.09 46.24 9.67L46.24 9.67L46.24 9.67Q46.24 10.90 45.11 11.79L45.11 11.79L45.11 11.79Q43.98 12.67 42.47 12.67L42.47 12.67L42.47 12.67Q41.04 12.67 40.09 12.26L40.09 12.26L40.09 12.26Q39.13 11.85 38.45 11.17L38.45 11.17L39.81 9.80L39.81 9.80Q40.50 10.62 42.14 10.76L42.14 10.76L42.14 10.76Q43.50 10.76 43.84 10.18L43.84 10.18L43.84 10.18Q44.18 9.60 43.84 9.02L43.84 9.02L43.84 9.02Q43.50 8.44 42.14 8.30L42.14 8.30L42.14 8.30Q40.91 8.16 39.88 7.55L39.88 7.55L39.88 7.55Q38.86 6.93 38.86 5.43L38.86 5.43L38.86 5.43Q38.86 4.07 40.02 3.24L40.02 3.24L40.02 3.24Q41.19 2.42 42.42 2.42L42.42 2.42ZM49.72 12.67L47.53 12.67L51.63 2.42L53.68 2.42L57.78 12.67L55.60 12.67L54.98 11.10L50.33 11.10L49.72 12.67ZM54.23 9.05L52.71 5.15L51.15 9.05L54.23 9.05ZM61.36 12.67L59.31 12.67L59.31 2.42L63.78 2.42L63.78 2.42Q67.37 2.42 67.37 5.37L67.37 5.37L67.37 5.37Q67.37 8.44 63.79 8.44L63.79 8.44L61.36 8.44L61.36 12.67ZM61.36 4.34L61.36 6.52L64.23 6.52L64.23 6.52Q65.47 6.50 65.50 5.39L65.50 5.39L65.50 5.39Q65.47 4.38 64.25 4.34L64.25 4.34L61.36 4.34ZM70.95 2.42L68.90 2.42L68.90 12.67L76.42 12.67L76.42 10.76L70.95 10.76L70.95 2.42ZM85.60 12.67L78.08 12.67L78.08 2.43L85.61 2.42L85.61 4.33L80.13 4.33L80.13 6.52L84.24 6.52L84.24 8.43L80.13 8.43L80.13 10.76L85.60 10.76L85.60 12.67ZM96.04 2.42L87.16 2.42L87.16 4.33L90.58 4.33L90.58 12.67L92.63 12.67L92.63 4.33L96.04 4.33L96.04 2.42ZM105.94 2.42L97.05 2.42L97.05 4.33L100.47 4.33L100.47 12.67L102.52 12.67L102.52 4.33L105.94 4.33L105.94 2.42ZM109.11 12.67L106.92 12.67L111.02 2.42L113.07 2.42L117.17 12.67L114.99 12.67L114.37 11.10L109.72 11.10L109.11 12.67ZM113.62 9.05L112.10 5.15L110.54 9.05L113.62 9.05Z"></path></g></svg>